<svg version="1.1" id="Layer_1" xmlns="http://www.w3.org/2000/svg" xmlns:xlink="http://www.w3.org/1999/xlink" x="0px" y="0px"
	 width="100%" viewBox="0 0 3126 3264" enable-background="new 0 0 3126 3264" xml:space="preserve">
<path fill="#000000" opacity="1.000000" stroke="none" 
	d="
M1.999998,2454.000000 
	C2.000000,1636.748413 2.000000,819.496948 2.000000,2.122694 
	C1043.813965,2.122694 2085.627930,2.122694 3128.000000,2.122694 
	C3128.000000,818.731995 3128.000000,1635.464111 3127.093750,2452.949707 
	C3125.187744,2453.694092 3124.188232,2453.677490 3123.188477,2453.677490 
	C2085.783447,2453.676270 1048.378418,2453.675537 10.973361,2453.688721 
	C7.982238,2453.688965 4.991117,2453.891846 1.999998,2454.000000 
M1051.884644,1343.868774 
	C1051.857056,1514.588745 1051.828491,1685.308838 1051.813965,1856.028809 
	C1051.813843,1858.020874 1051.994751,1860.012817 1051.890869,1863.845215 
	C1051.222656,1882.111206 1050.896484,1900.398071 1049.780273,1918.636597 
	C1048.848633,1933.861450 1047.993774,1949.208984 1045.317261,1964.182617 
	C1040.941528,1988.661621 1035.787720,2013.049927 1029.739868,2037.170044 
	C1020.568787,2073.746582 1006.413513,2108.617676 989.572998,2142.263916 
	C976.479309,2168.424072 961.601624,2193.617920 944.527649,2217.514893 
	C929.028442,2239.208252 912.283508,2259.788818 894.125793,2279.272461 
	C890.839294,2282.798828 887.951721,2286.697021 883.407715,2292.209961 
	C888.857971,2292.209961 892.049255,2292.209961 895.240479,2292.209961 
	C1149.518677,2292.208008 1403.796875,2292.212402 1658.075073,2292.189941 
	C1678.023315,2292.188232 1697.838989,2290.432373 1717.699463,2288.461670 
	C1754.729126,2284.788086 1790.173218,2274.625000 1824.891479,2262.331543 
	C1880.574951,2242.614014 1930.802124,2212.620850 1977.149048,2176.164551 
	C2024.489380,2138.926514 2066.099121,2095.906006 2102.373291,2047.948120 
	C2130.442139,2010.838013 2156.613525,1972.484497 2177.546631,1930.564575 
	C2187.982666,1909.666016 2198.284180,1888.625122 2209.249512,1867.957031 
	C2212.180664,1862.432251 2214.437500,1856.545044 2216.920898,1850.788574 
	C2220.719727,1841.983032 2224.446777,1833.146484 2229.249512,1823.346191 
	C2241.349854,1789.585815 2254.385010,1756.124756 2265.313477,1721.989136 
	C2278.984619,1679.287476 2289.396729,1635.649536 2297.187256,1591.459473 
	C2301.216309,1568.604858 2304.892090,1545.674805 2308.076904,1522.688599 
	C2310.668945,1503.978882 2312.676270,1485.167236 2314.252197,1466.343018 
	C2316.437012,1440.243774 2319.095459,1414.108154 2319.515381,1387.955566 
	C2320.080566,1352.740356 2318.879883,1317.490479 2318.095703,1282.262939 
	C2317.682373,1263.672607 2316.579834,1245.096802 2315.668213,1226.520264 
	C2315.592773,1224.981812 2314.597412,1223.488525 2314.143799,1220.153198 
	C2313.491455,1212.228394 2313.070801,1204.276367 2312.142334,1196.383911 
	C2309.393066,1173.007446 2307.248535,1149.520874 2303.397461,1126.321289 
	C2296.281006,1083.453369 2287.500000,1040.920166 2276.275879,998.872009 
	C2257.884033,929.971863 2233.607422,863.292175 2203.218506,798.810181 
	C2189.401123,769.491089 2173.196777,741.492310 2155.632324,712.670105 
	C2153.140137,709.180115 2150.523193,705.771667 2148.176758,702.186401 
	C2136.253662,683.969421 2125.076660,665.220642 2112.380615,647.562561 
	C2087.305176,612.686401 2059.598389,579.967896 2027.964600,550.767334 
	C2013.543457,537.455322 1999.160889,524.065002 1984.150146,511.436157 
	C1955.285645,487.151978 1923.991699,466.278198 1890.706909,448.583466 
	C1856.541138,430.420471 1820.841553,415.942749 1783.457642,405.576691 
	C1754.209351,397.466492 1724.388794,392.996643 1694.288574,390.379913 
	C1680.717163,389.200104 1666.978027,389.839874 1653.315063,389.838654 
	C1401.987671,389.816071 1150.660278,389.821442 899.332947,389.821167 
	C896.999634,389.821167 894.650452,389.657867 892.337830,389.877533 
	C890.266724,390.074188 888.235901,390.694855 885.346008,391.306519 
	C887.020020,393.555664 887.930237,394.904938 888.965454,396.150360 
	C904.467285,414.801514 920.653320,432.928101 935.376038,452.174347 
	C981.474060,512.436096 1012.877441,579.917297 1032.220703,653.149963 
	C1042.172363,690.826233 1047.549561,729.219666 1050.267334,769.848572 
	C1050.786865,783.456970 1051.751099,797.065125 1051.758667,810.673828 
	C1051.854248,983.126526 1051.810059,1155.579346 1051.816772,1328.032104 
	C1051.817017,1332.688965 1051.988525,1337.345703 1051.884644,1343.868774 
z"/>
<path fill="#000000" opacity="1.000000" stroke="none" 
	d="
M3128.000000,2492.000000 
	C3128.000000,2749.954102 3128.000000,3007.908203 3128.000000,3265.931152 
	C2086.231445,3265.931152 1044.462891,3265.931152 2.000000,3265.931152 
	C2.000000,3008.611084 2.000000,2751.221436 2.906198,2493.064209 
	C4.811874,2492.305420 5.811354,2492.321533 6.810833,2492.321533 
	C1044.216064,2492.322998 2081.621338,2492.323730 3119.026611,2492.310303 
	C3122.017822,2492.310303 3125.008789,2492.107910 3128.000000,2492.000000 
M2021.636230,2918.566162 
	C2021.728760,2916.379395 2021.821167,2914.192627 2022.307861,2910.385986 
	C2022.962402,2901.024170 2023.616943,2891.662109 2025.305054,2880.962158 
	C2025.476685,2876.015625 2025.767212,2871.069336 2025.792358,2866.122070 
	C2025.831177,2858.470215 2026.199829,2850.912109 2031.300903,2843.453369 
	C2034.980713,2842.078369 2038.660522,2840.703369 2043.673584,2839.816162 
	C2045.134644,2841.870361 2046.931763,2843.764893 2047.995972,2846.007324 
	C2051.766113,2853.953125 2055.285889,2862.017578 2059.114258,2871.351807 
	C2066.090088,2885.514648 2073.065918,2899.677490 2080.247803,2915.279053 
	C2084.793213,2923.574951 2089.338623,2931.871094 2093.993896,2941.565918 
	C2098.676514,2947.464600 2102.720703,2954.060547 2108.207031,2959.080811 
	C2114.699951,2965.021973 2123.181885,2966.084473 2131.501709,2962.989502 
	C2140.056152,2959.807129 2142.623291,2952.171143 2143.596924,2943.989746 
	C2143.982666,2940.751465 2143.387695,2937.396484 2143.626465,2932.507812 
	C2141.833740,2924.310547 2140.041016,2916.113281 2138.215088,2906.325684 
	C2133.310791,2893.573730 2128.406494,2880.821777 2123.198730,2866.730469 
	C2120.975342,2862.282471 2119.064941,2857.640381 2116.454590,2853.432617 
	C2112.701172,2847.382324 2108.438232,2841.647949 2104.243408,2834.331299 
	C2101.456787,2829.535645 2098.835449,2824.633789 2095.839355,2819.972656 
	C2092.527344,2814.820312 2088.872314,2809.888672 2085.618652,2805.221924 
	C2090.339844,2799.625732 2094.340088,2794.884033 2099.453613,2789.458252 
	C2103.131592,2784.368652 2106.809570,2779.279297 2111.616699,2773.490967 
	C2115.069092,2767.657471 2118.521240,2761.823730 2122.728516,2754.873047 
	C2126.386475,2748.570068 2130.044678,2742.266846 2134.240723,2734.645020 
	C2142.957764,2720.215332 2148.969971,2704.780762 2152.071533,2686.471924 
	C2152.646729,2681.577393 2153.737061,2676.677734 2153.690918,2671.789062 
	C2153.593262,2661.447021 2146.819580,2651.852051 2137.757568,2650.443115 
	C2126.151611,2648.638184 2120.553467,2648.444092 2113.316895,2660.394043 
	C2108.050537,2669.090332 2104.364258,2678.743164 2098.954102,2688.867188 
	C2096.285400,2693.462402 2093.646973,2698.075195 2090.942139,2702.648682 
	C2085.226318,2712.313232 2079.475830,2721.957764 2072.616943,2732.359131 
	C2067.111084,2739.040039 2061.605225,2745.721191 2054.883789,2752.872803 
	C2051.437256,2755.978760 2048.304688,2759.567383 2044.463379,2762.067139 
	C2039.749390,2765.135254 2035.054321,2769.510254 2028.140869,2766.898438 
	C2028.543579,2763.703369 2028.905029,2760.836426 2029.492310,2756.380615 
	C2028.437012,2749.556396 2027.381714,2742.732178 2026.271362,2734.191162 
	C2024.858398,2719.608398 2021.888916,2705.417236 2015.437256,2690.686279 
	C2013.634155,2687.160400 2012.125732,2683.441406 2009.964600,2680.150635 
	C2005.956055,2674.047119 2001.286011,2668.501221 1994.140747,2665.778076 
	C1974.750977,2658.388184 1957.281372,2671.198242 1955.917969,2694.015137 
	C1955.917969,2694.015137 1955.889160,2693.845459 1955.168823,2694.265869 
	C1954.693726,2694.710449 1954.611084,2695.218994 1954.489014,2697.644287 
	C1954.267578,2702.598877 1953.651733,2707.574463 1953.912598,2712.503662 
	C1954.362671,2721.010010 1955.357544,2729.487549 1955.859741,2739.594238 
	C1955.996216,2741.764160 1956.132812,2743.933838 1956.219604,2747.005127 
	C1956.219604,2747.005127 1956.540161,2747.848877 1956.324219,2749.532715 
	C1956.480957,2752.347412 1956.637817,2755.162109 1956.421509,2759.584717 
	C1956.992432,2764.382324 1957.563354,2769.179932 1957.909302,2775.719482 
	C1958.014038,2779.802246 1958.118896,2783.884766 1958.105835,2789.825195 
	C1958.987061,2807.220215 1959.868286,2824.614990 1960.370117,2843.788574 
	C1961.024170,2855.855469 1961.678223,2867.922363 1962.228638,2881.815918 
	C1962.477905,2886.677979 1962.727173,2891.539795 1962.558716,2897.381348 
	C1962.968506,2898.293945 1963.378418,2899.206299 1963.794189,2901.872559 
	C1964.000000,2906.537598 1964.205933,2911.202393 1964.296509,2917.617920 
	C1964.445435,2920.511475 1964.594360,2923.404785 1964.390137,2927.537354 
	C1964.859131,2929.110596 1965.328125,2930.683838 1965.833618,2933.172852 
	C1965.833618,2933.172852 1966.139282,2934.036865 1965.922119,2935.796631 
	C1966.041748,2939.428955 1965.881104,2943.096680 1966.333984,2946.687012 
	C1967.648560,2957.105957 1974.578613,2964.427490 1985.262695,2967.064209 
	C1994.418335,2969.324219 2004.026001,2965.918701 2009.008423,2956.898193 
	C2012.925537,2949.806152 2014.995972,2941.694092 2018.527344,2932.687744 
	C2019.102905,2929.274902 2019.678467,2925.862305 2020.976685,2921.886475 
	C2021.446655,2921.389160 2021.560059,2920.821045 2021.636230,2918.566162 
M1923.622559,2776.139893 
	C1923.489380,2770.058105 1923.356201,2763.976562 1923.441406,2756.301025 
	C1922.708740,2749.506836 1921.976074,2742.712402 1921.353638,2734.378662 
	C1920.895508,2731.802490 1920.511230,2729.210205 1919.966431,2726.652588 
	C1917.450073,2714.840332 1915.988281,2702.712158 1909.455566,2690.661377 
	C1908.393311,2688.592529 1907.400146,2686.484375 1906.257935,2684.460693 
	C1898.064331,2669.946777 1886.623535,2659.671143 1869.945801,2655.691406 
	C1857.669189,2652.762207 1845.524048,2653.405273 1833.493652,2656.265137 
	C1812.776367,2661.189941 1795.549683,2671.591309 1782.461914,2690.431396 
	C1771.286499,2704.009277 1763.158936,2719.233887 1756.829468,2736.970459 
	C1754.495850,2744.567627 1752.162354,2752.165039 1748.798950,2760.833984 
	C1746.455322,2770.526611 1744.111816,2780.218994 1740.756714,2791.008301 
	C1738.439819,2802.580566 1736.122803,2814.153076 1732.812378,2826.872314 
	C1731.927856,2830.715088 1730.605225,2834.519287 1730.259644,2838.409912 
	C1729.720703,2844.477783 1727.165527,2848.969727 1720.512573,2852.436035 
	C1718.973755,2852.933594 1717.398315,2853.340576 1715.901733,2853.942871 
	C1704.428101,2858.563721 1692.424316,2862.431885 1685.262207,2875.012451 
	C1685.088623,2875.907715 1684.915039,2876.803223 1684.399170,2879.266846 
	C1684.516968,2880.855957 1684.634766,2882.445312 1684.479370,2885.448242 
	C1686.182373,2895.357910 1691.888794,2901.728271 1701.791992,2903.387451 
	C1705.889404,2904.073730 1710.323486,2903.214600 1714.539185,2902.606689 
	C1719.256714,2901.926270 1723.900269,2900.733643 1728.531860,2899.772949 
	C1729.808228,2905.974365 1730.851807,2911.044922 1731.844116,2917.804443 
	C1733.447388,2925.229248 1735.050659,2932.654297 1736.852783,2941.449707 
	C1740.203857,2947.375977 1742.427002,2954.469971 1747.122070,2959.004883 
	C1760.091919,2971.531738 1781.748291,2964.397949 1785.975220,2946.862549 
	C1786.512939,2944.631348 1786.794556,2942.338379 1787.621338,2938.260254 
	C1787.491455,2930.197998 1787.361694,2922.135742 1787.626221,2912.374023 
	C1787.134644,2904.355225 1786.643066,2896.336670 1787.544312,2887.999512 
	C1788.453003,2887.718994 1789.361694,2887.438477 1791.082886,2887.188965 
	C1791.604370,2886.953369 1791.988770,2886.577393 1794.044434,2886.186523 
	C1796.677124,2886.114502 1799.321899,2886.179443 1801.940674,2885.948975 
	C1821.254395,2884.251221 1840.562988,2882.487549 1859.822998,2888.053223 
	C1859.913818,2894.707275 1860.004639,2901.361328 1859.879639,2909.841309 
	C1860.190063,2916.607422 1860.500610,2923.373535 1860.515747,2931.708008 
	C1862.844604,2940.615479 1864.345093,2949.853516 1867.731323,2958.338867 
	C1871.232544,2967.112793 1878.716064,2970.788086 1888.557007,2970.484375 
	C1898.248291,2970.185303 1904.631104,2965.315918 1907.522949,2957.019775 
	C1910.530640,2948.391602 1911.646484,2939.104248 1914.092041,2928.426270 
	C1914.487061,2921.636719 1914.881958,2914.847412 1915.662231,2906.590088 
	C1916.927124,2904.430664 1917.670166,2901.390625 1919.553223,2900.274414 
	C1925.552490,2896.718750 1929.526001,2891.799561 1933.075806,2884.574707 
	C1935.149536,2878.213135 1932.775635,2873.090088 1929.132935,2867.922363 
	C1926.112061,2863.636719 1923.995850,2858.713135 1921.731567,2852.219971 
	C1921.790527,2844.146729 1921.849609,2836.073242 1922.108276,2826.256592 
	C1922.544312,2815.501709 1922.980347,2804.746826 1923.883301,2792.254150 
	C1923.689941,2787.476807 1923.496582,2782.699707 1923.622559,2776.139893 
M1562.350464,2697.807129 
	C1562.350464,2697.807129 1562.425781,2697.662598 1562.409302,2696.122803 
	C1560.307983,2690.071045 1558.206665,2684.019287 1555.973145,2676.534912 
	C1554.388428,2673.283691 1553.112793,2669.832764 1551.164307,2666.816650 
	C1543.690918,2655.248535 1532.014282,2647.304199 1514.880615,2652.175537 
	C1501.823608,2655.887695 1494.732422,2665.016357 1491.777100,2679.618896 
	C1491.229492,2685.751709 1490.681885,2691.884521 1489.888916,2699.807129 
	C1491.324829,2709.862793 1492.760620,2719.918457 1494.081055,2731.491455 
	C1495.332520,2735.680664 1496.583984,2739.870117 1497.822876,2745.598633 
	C1499.660889,2751.148193 1501.498901,2756.697754 1503.592896,2763.778564 
	C1505.225952,2769.113281 1506.858887,2774.447998 1508.678345,2781.236816 
	C1510.017578,2785.489258 1511.356812,2789.741699 1512.839355,2795.518799 
	C1512.592529,2800.713623 1512.986328,2806.042969 1511.930664,2811.067871 
	C1510.714600,2816.856201 1508.217773,2822.375000 1505.503784,2829.229004 
	C1501.541382,2839.430908 1497.578979,2849.632812 1492.629761,2860.836914 
	C1488.648926,2872.588867 1484.667969,2884.340820 1480.203613,2897.618164 
	C1476.533203,2910.179443 1473.381104,2922.814209 1474.435059,2937.743164 
	C1474.527344,2940.540527 1474.619507,2943.337646 1474.531006,2947.041260 
	C1474.696777,2947.684570 1475.080322,2948.147461 1475.688843,2950.086426 
	C1475.534546,2957.927734 1477.343628,2965.208496 1482.263550,2971.441650 
	C1487.242920,2977.750488 1495.979980,2980.252197 1503.805908,2977.862793 
	C1511.337769,2975.563232 1515.955811,2969.216553 1516.303101,2960.692627 
	C1516.637573,2952.484375 1516.975098,2944.276367 1517.857788,2934.499512 
	C1520.924072,2922.352051 1523.990234,2910.204346 1527.762329,2896.697266 
	C1532.504639,2885.938477 1535.869019,2874.510986 1542.830566,2863.708740 
	C1545.621338,2867.660645 1547.747925,2870.587158 1549.785156,2873.574219 
	C1554.448975,2880.412354 1559.069092,2887.280762 1564.076904,2895.475098 
	C1569.943848,2903.678711 1575.810669,2911.882324 1581.988770,2921.441162 
	C1588.489380,2928.962891 1594.372192,2937.157715 1601.646973,2943.836182 
	C1610.716431,2952.161621 1620.673828,2959.164062 1634.373535,2958.488770 
	C1651.986694,2957.620605 1661.315430,2943.652100 1654.436523,2927.309570 
	C1653.176147,2924.315430 1652.277222,2921.169189 1651.073608,2916.783203 
	C1645.386963,2907.861572 1639.700439,2898.939941 1633.625977,2888.674561 
	C1627.313965,2878.107178 1621.002075,2867.539551 1614.398682,2855.648193 
	C1609.713501,2846.368408 1605.028198,2837.088623 1600.033569,2826.360107 
	C1596.475220,2815.576416 1592.916748,2804.792480 1589.687134,2792.365234 
	C1590.482178,2787.582275 1591.277100,2782.799316 1593.112061,2777.215820 
	C1596.197266,2772.876221 1599.282349,2768.536621 1603.520630,2763.560547 
	C1609.555542,2757.028564 1615.590576,2750.496582 1622.675293,2743.086426 
	C1626.579712,2738.779785 1630.484009,2734.472900 1635.549805,2729.553223 
	C1645.647217,2718.958496 1655.744629,2708.363525 1667.006592,2697.143066 
	C1673.206055,2689.440674 1680.796631,2682.576172 1682.328979,2670.351074 
	C1682.591919,2653.376953 1666.275269,2641.037598 1648.082520,2647.162842 
	C1634.828125,2651.625732 1622.970581,2658.951904 1612.333984,2670.077881 
	C1604.094360,2677.986816 1595.854858,2685.895996 1586.463501,2694.441895 
	C1580.494141,2700.654297 1574.524780,2706.866943 1567.831909,2713.832275 
	C1566.236816,2708.497559 1564.959595,2704.226074 1563.629517,2698.962891 
	C1563.443481,2698.230225 1562.976318,2697.808838 1562.350464,2697.807129 
M1386.332031,2772.859619 
	C1393.510986,2765.893066 1400.690063,2758.926270 1409.067993,2751.372314 
	C1415.986816,2744.231201 1422.905640,2737.090088 1431.025879,2729.349121 
	C1439.330444,2721.741943 1448.006958,2714.383057 1449.641724,2700.327881 
	C1449.066772,2694.222168 1448.491821,2688.116699 1448.007324,2680.566650 
	C1445.113403,2670.449951 1438.415039,2663.543701 1428.555176,2660.857178 
	C1419.663818,2658.434326 1410.343506,2656.740234 1401.152832,2656.416016 
	C1371.566284,2655.372070 1342.022461,2657.211670 1312.589355,2660.093018 
	C1296.417480,2661.676514 1280.237305,2664.065674 1264.959229,2670.081299 
	C1257.916626,2672.854248 1250.439697,2675.195068 1244.519653,2682.673340 
	C1238.956299,2688.182617 1239.377808,2695.059814 1239.914795,2703.506592 
	C1241.341797,2712.845459 1246.462036,2719.476318 1255.276367,2722.603760 
	C1260.470825,2724.447021 1266.065308,2725.796875 1271.547363,2726.084229 
	C1294.455811,2727.284424 1317.055664,2723.573975 1339.722412,2721.057373 
	C1349.331787,2719.990723 1358.926636,2719.424805 1369.272583,2720.430664 
	C1367.623169,2723.111084 1366.763550,2724.508301 1364.776611,2726.612549 
	C1358.364502,2733.691895 1351.952515,2740.771240 1344.401123,2748.454102 
	C1338.202271,2754.846436 1332.003296,2761.239014 1324.661377,2768.339844 
	C1317.850098,2775.601807 1311.038696,2782.863770 1302.949097,2790.704834 
	C1298.309204,2793.087646 1293.905884,2796.498047 1288.978516,2797.632568 
	C1279.704102,2799.767822 1270.096802,2800.409180 1260.685059,2802.008301 
	C1250.644653,2803.714355 1240.503540,2805.210449 1230.721436,2807.931152 
	C1223.250000,2810.009033 1218.533569,2815.536133 1218.225708,2825.527588 
	C1219.213989,2838.907227 1229.617310,2847.351562 1243.091309,2845.658691 
	C1246.667725,2845.209717 1250.224731,2844.605469 1253.506104,2845.381592 
	C1251.822144,2847.756592 1250.209839,2850.186523 1248.441162,2852.496826 
	C1242.330566,2860.477783 1236.165527,2868.416992 1229.337280,2876.604980 
	C1228.882690,2876.867432 1228.643555,2877.260986 1228.009399,2878.745117 
	C1227.867188,2879.096680 1227.725098,2879.448242 1226.467163,2880.519043 
	C1219.528076,2890.951172 1212.588989,2901.383057 1204.666870,2912.715332 
	C1201.866577,2918.479004 1199.066284,2924.242676 1195.469849,2931.172119 
	C1194.974854,2933.424316 1194.479858,2935.676514 1193.422729,2938.325195 
	C1193.025146,2938.675293 1192.939941,2939.089111 1192.503418,2941.094238 
	C1192.586670,2942.741943 1192.669800,2944.389893 1192.431641,2947.511475 
	C1195.487549,2962.199951 1202.425293,2968.583496 1216.833496,2968.200928 
	C1232.753906,2967.777832 1248.697998,2966.862061 1264.542114,2965.269775 
	C1290.586792,2962.652832 1316.493530,2958.374756 1342.581055,2956.556396 
	C1367.439209,2954.823975 1392.390869,2956.265381 1416.998047,2961.098389 
	C1432.668457,2964.176025 1436.883789,2962.235596 1445.609253,2947.600342 
	C1446.384155,2941.731201 1447.159058,2935.862305 1448.053101,2928.487061 
	C1447.010864,2921.579346 1444.371338,2915.645508 1437.316406,2910.787842 
	C1431.059082,2907.876709 1425.002197,2904.373535 1418.504272,2902.172607 
	C1403.234253,2896.999512 1387.116211,2896.958008 1371.291382,2896.469971 
	C1356.080566,2896.000732 1340.805542,2897.571045 1325.561157,2898.293213 
	C1324.251343,2898.355469 1322.969238,2898.886719 1321.656250,2899.017334 
	C1303.855225,2900.789307 1286.050903,2902.528564 1267.962891,2903.977539 
	C1267.962891,2903.977539 1267.665283,2903.691650 1267.845825,2902.317139 
	C1272.065796,2895.597656 1276.285767,2888.877930 1281.779297,2881.898682 
	C1291.214722,2870.649658 1300.650269,2859.400635 1311.387939,2847.491699 
	C1315.620361,2843.252441 1320.784668,2841.391846 1326.694214,2841.843506 
	C1339.822388,2842.846924 1352.944824,2843.933105 1366.062500,2845.066650 
	C1375.895386,2845.916016 1385.710449,2847.550049 1395.545898,2847.653564 
	C1409.665527,2847.802490 1415.557983,2837.637207 1409.512329,2822.720703 
	C1405.821289,2819.968262 1402.486816,2816.340088 1398.359375,2814.659180 
	C1391.338379,2811.799805 1383.776001,2810.297363 1376.520142,2807.977783 
	C1369.872803,2805.852783 1362.251343,2806.718506 1354.713257,2800.928711 
	C1357.565796,2798.827393 1359.690308,2797.262451 1363.066406,2795.251221 
	C1370.531860,2788.143311 1377.997314,2781.035400 1386.332031,2772.859619 
M956.364868,2905.245850 
	C956.457947,2906.043701 956.550964,2906.841797 956.206238,2909.032471 
	C954.584900,2910.489746 952.844116,2911.836182 951.366943,2913.427246 
	C948.162048,2916.879395 945.091736,2920.456787 940.851013,2924.984863 
	C938.230164,2930.470459 937.370544,2936.153564 939.009094,2943.422119 
	C942.625793,2954.089844 950.722534,2960.061035 960.745728,2963.838623 
	C985.260071,2973.077637 1010.310303,2971.944336 1035.411133,2967.088135 
	C1054.169067,2963.458984 1071.119385,2955.486572 1087.865234,2943.997559 
	C1093.940796,2938.736328 1100.016357,2933.474854 1107.427734,2927.913330 
	C1112.335693,2922.739014 1117.243652,2917.564697 1123.100464,2911.868408 
	C1123.423218,2911.241455 1123.745972,2910.614502 1124.670166,2909.309570 
	C1124.670166,2909.309570 1125.033203,2908.479248 1126.128784,2907.902344 
	C1132.104980,2898.621826 1138.081177,2889.341309 1145.129028,2879.189697 
	C1149.494873,2868.221924 1153.860718,2857.254395 1159.247437,2845.222412 
	C1166.407471,2824.050293 1170.317017,2802.378418 1169.627319,2778.230957 
	C1169.476318,2774.753418 1169.325317,2771.275879 1169.247314,2767.003662 
	C1169.029541,2766.480713 1168.658569,2766.111328 1168.186890,2764.125732 
	C1166.828735,2755.401611 1165.470581,2746.677734 1164.008057,2736.386719 
	C1159.880615,2718.286133 1152.651245,2701.708008 1139.624268,2686.508545 
	C1134.514771,2681.617920 1129.405273,2676.727295 1123.562744,2670.687500 
	C1113.809814,2665.116699 1104.584717,2658.146240 1094.207031,2654.231934 
	C1060.222290,2641.412354 1025.973267,2643.011230 992.038025,2655.232666 
	C981.078491,2659.179199 970.657349,2664.150635 960.534180,2672.397705 
	C953.808350,2677.165527 947.042297,2681.893799 942.416321,2690.582764 
	C935.197021,2700.821045 931.144836,2712.043945 931.957214,2724.727539 
	C932.464417,2732.645508 935.273438,2739.381836 942.986816,2745.036621 
	C948.501892,2747.197754 950.787659,2751.641113 951.267456,2757.165771 
	C951.866150,2764.060059 952.249878,2770.972900 952.388672,2779.537598 
	C952.867188,2783.135254 953.617981,2786.720703 953.778748,2790.332520 
	C954.633667,2809.548096 955.340759,2828.769775 955.901489,2849.838379 
	C956.169617,2857.913818 956.437744,2865.989502 956.380371,2875.893311 
	C956.484741,2885.285156 956.589111,2894.676758 956.364868,2905.245850 
M752.907715,2842.896240 
	C752.730286,2842.514404 752.439697,2842.262451 752.136292,2840.502930 
	C751.173340,2836.346924 750.210449,2832.190674 749.086914,2826.721436 
	C744.304321,2816.545654 737.484314,2807.804199 727.855225,2802.154541 
	C704.238831,2788.299072 666.758118,2794.824707 654.664368,2829.016357 
	C651.049377,2837.757324 651.592468,2846.892578 651.925476,2857.677002 
	C653.080566,2862.787354 653.797180,2868.045898 655.466980,2872.982178 
	C662.482056,2893.719727 678.646240,2903.632812 699.011230,2905.331543 
	C716.703186,2906.807373 731.728394,2899.309082 742.882019,2884.680176 
	C749.418823,2876.106689 750.734863,2866.013672 753.584900,2854.342773 
	C753.307312,2850.713867 753.029724,2847.085205 752.907715,2842.896240 
z"/>
<path fill="#FFFFFF" opacity="1.000000" stroke="none" 
	d="
M3128.000000,2491.083984 
	C3125.008789,2492.107910 3122.017822,2492.310303 3119.026611,2492.310303 
	C2081.621338,2492.323730 1044.216064,2492.322998 6.810833,2492.321533 
	C5.811354,2492.321533 4.811874,2492.305420 2.906198,2492.148438 
	C2.000000,2479.943848 2.000000,2467.887939 1.999998,2454.916016 
	C4.991117,2453.891846 7.982238,2453.688965 10.973361,2453.688721 
	C1048.378418,2453.675537 2085.783447,2453.676270 3123.188477,2453.677490 
	C3124.188232,2453.677490 3125.187744,2453.694092 3127.093750,2453.851562 
	C3128.000000,2466.056152 3128.000000,2478.112061 3128.000000,2491.083984 
z"/>
<path fill="#432D7F" opacity="1.000000" stroke="none" 
	d="
M2228.204102,1824.323120 
	C2224.446777,1833.146484 2220.719727,1841.983032 2216.920898,1850.788574 
	C2214.437500,1856.545044 2212.180664,1862.432251 2209.249512,1867.957031 
	C2198.284180,1888.625122 2187.982666,1909.666016 2177.546631,1930.564575 
	C2156.613525,1972.484497 2130.442139,2010.838013 2102.373291,2047.948120 
	C2066.099121,2095.906006 2024.489380,2138.926514 1977.149048,2176.164551 
	C1930.802124,2212.620850 1880.574951,2242.614014 1824.891479,2262.331543 
	C1790.173218,2274.625000 1754.729126,2284.788086 1717.699463,2288.461670 
	C1697.838989,2290.432373 1678.023315,2292.188232 1658.075073,2292.189941 
	C1403.796875,2292.212402 1149.518677,2292.208008 895.240479,2292.209961 
	C892.049255,2292.209961 888.857971,2292.209961 883.407715,2292.209961 
	C887.951721,2286.697021 890.839294,2282.798828 894.125793,2279.272461 
	C912.283508,2259.788818 929.028442,2239.208252 944.527649,2217.514893 
	C961.601624,2193.617920 976.479309,2168.424072 989.572998,2142.263916 
	C1006.413513,2108.617676 1020.568787,2073.746582 1029.739868,2037.170044 
	C1035.787720,2013.049927 1040.941528,1988.661621 1045.317261,1964.182617 
	C1047.993774,1949.208984 1048.848633,1933.861450 1049.780273,1918.636597 
	C1050.896484,1900.398071 1051.222656,1882.111206 1052.756836,1862.822510 
	C1058.136108,1858.580933 1063.122437,1857.868042 1068.644897,1857.899048 
	C1103.961670,1858.097412 1139.281860,1857.795410 1174.597290,1858.091553 
	C1190.835327,1858.227661 1207.065186,1859.345215 1223.476685,1860.940430 
	C1223.700562,1886.521606 1223.781738,1911.180054 1223.786255,1935.838623 
	C1223.805420,2041.141235 1223.796631,2146.443848 1223.828003,2251.746338 
	C1223.829102,2255.577637 1224.144043,2259.408936 1224.340820,2263.877686 
	C1229.528198,2263.877686 1233.486450,2263.877686 1237.444824,2263.877686 
	C1376.737427,2263.877930 1516.030151,2263.919678 1655.322754,2263.807861 
	C1667.596313,2263.797852 1679.906860,2263.218018 1692.134644,2262.152100 
	C1717.474243,2259.943359 1741.702759,2252.719971 1765.427856,2244.021729 
	C1784.870850,2236.893066 1802.781616,2226.508057 1820.067627,2215.175049 
	C1849.378784,2195.958252 1875.817505,2173.401123 1899.792358,2147.745361 
	C1921.209106,2124.826660 1940.882446,2100.603760 1958.643555,2074.810547 
	C1984.745728,2036.903809 2007.844360,1997.227905 2026.510254,1955.137451 
	C2039.044067,1926.874268 2050.807617,1898.258423 2062.367188,1869.579102 
	C2068.932617,1853.289795 2074.392578,1836.554932 2081.265869,1820.014648 
	C2105.487061,1820.005737 2128.792725,1820.001953 2152.098633,1820.000366 
	C2173.739746,1819.998901 2195.380859,1819.988770 2217.021973,1820.009644 
	C2221.279053,1820.013672 2225.928711,1819.126221 2228.204102,1824.323120 
z"/>
<path fill="#5E0566" opacity="1.000000" stroke="none" 
	d="
M1050.461670,768.009094 
	C1047.549561,729.219666 1042.172363,690.826233 1032.220703,653.149963 
	C1012.877441,579.917297 981.474060,512.436096 935.376038,452.174347 
	C920.653320,432.928101 904.467285,414.801514 888.965454,396.150360 
	C887.930237,394.904938 887.020020,393.555664 885.346008,391.306519 
	C888.235901,390.694855 890.266724,390.074188 892.337830,389.877533 
	C894.650452,389.657867 896.999634,389.821167 899.332947,389.821167 
	C1150.660278,389.821442 1401.987671,389.816071 1653.315063,389.838654 
	C1666.978027,389.839874 1680.717163,389.200104 1694.288574,390.379913 
	C1724.388794,392.996643 1754.209351,397.466492 1783.457642,405.576691 
	C1820.841553,415.942749 1856.541138,430.420471 1890.706909,448.583466 
	C1923.991699,466.278198 1955.285645,487.151978 1984.150146,511.436157 
	C1999.160889,524.065002 2013.543457,537.455322 2027.964600,550.767334 
	C2059.598389,579.967896 2087.305176,612.686401 2112.380615,647.562561 
	C2125.076660,665.220642 2136.253662,683.969421 2148.176758,702.186401 
	C2150.523193,705.771667 2153.140137,709.180115 2155.119629,713.317444 
	C2152.503418,713.130005 2150.441406,712.160461 2148.286621,711.489624 
	C2144.257324,710.235291 2140.181396,708.184937 2136.111816,708.153381 
	C2101.839355,707.887024 2067.563477,707.984558 2033.288940,708.048889 
	C2031.108643,708.052979 2028.929688,708.692810 2026.093018,709.140625 
	C2026.540771,712.294922 2027.254517,714.848572 2027.081055,717.340576 
	C2027.013306,718.314026 2024.951538,719.148560 2023.257935,719.617065 
	C2022.402588,718.243591 2022.208374,717.236389 2021.754517,716.364258 
	C2002.886719,680.105225 1983.799316,644.035522 1960.413940,610.318481 
	C1932.403076,569.932190 1901.112183,532.642395 1863.831299,500.477722 
	C1831.291992,472.403992 1795.585938,449.607941 1755.117310,434.738556 
	C1729.725830,425.408905 1703.506592,418.453033 1676.449585,418.369720 
	C1529.168945,417.916260 1381.886108,418.149536 1234.604126,418.173004 
	C1231.371582,418.173523 1228.139160,418.489197 1223.823486,418.714355 
	C1223.823486,423.334015 1223.823608,427.248749 1223.823608,431.163483 
	C1223.821899,539.125854 1223.825928,647.088196 1223.797852,755.050598 
	C1223.796753,759.369934 1223.489624,763.689087 1222.430176,768.006653 
	C1164.510620,768.006348 1107.486206,768.007751 1050.461670,768.009094 
z"/>
<path fill="#4D1E76" opacity="1.000000" stroke="none" 
	d="
M2228.726807,1823.834717 
	C2225.928711,1819.126221 2221.279053,1820.013672 2217.021973,1820.009644 
	C2195.380859,1819.988770 2173.739746,1819.998901 2152.098633,1820.000366 
	C2128.792725,1820.001953 2105.487061,1820.005737 2081.243652,1819.259277 
	C2092.772949,1778.539307 2104.207275,1738.274780 2112.570068,1697.233032 
	C2119.388916,1663.767334 2125.819580,1630.209595 2131.628418,1596.555664 
	C2135.177979,1575.991577 2137.494141,1555.198853 2139.863037,1534.451538 
	C2141.743896,1517.980347 2143.021240,1501.434448 2144.285400,1484.900024 
	C2146.256836,1459.109375 2149.024902,1433.323242 2149.586914,1407.494385 
	C2150.478516,1366.545288 2149.833496,1325.562866 2149.813965,1284.594482 
	C2149.812988,1282.270508 2149.588867,1279.946655 2149.469482,1277.622681 
	C2148.483887,1258.421875 2147.498779,1239.221191 2147.327637,1219.988647 
	C2153.353271,1219.304565 2158.562988,1218.105347 2163.776855,1218.086426 
	C2206.226318,1217.932861 2248.676514,1218.019531 2291.126465,1217.982544 
	C2299.013184,1217.975586 2306.979248,1217.283203 2314.029541,1221.974243 
	C2314.597412,1223.488525 2315.592773,1224.981812 2315.668213,1226.520264 
	C2316.579834,1245.096802 2317.682373,1263.672607 2318.095703,1282.262939 
	C2318.879883,1317.490479 2320.080566,1352.740356 2319.515381,1387.955566 
	C2319.095459,1414.108154 2316.437012,1440.243774 2314.252197,1466.343018 
	C2312.676270,1485.167236 2310.668945,1503.978882 2308.076904,1522.688599 
	C2304.892090,1545.674805 2301.216309,1568.604858 2297.187256,1591.459473 
	C2289.396729,1635.649536 2278.984619,1679.287476 2265.313477,1721.989136 
	C2254.385010,1756.124756 2241.349854,1789.585815 2228.726807,1823.834717 
z"/>
<path fill="#55136F" opacity="1.000000" stroke="none" 
	d="
M1050.364502,768.928833 
	C1107.486206,768.007751 1164.510620,768.006348 1222.606812,768.930237 
	C1223.720703,771.518860 1223.799683,773.182251 1223.799805,774.845581 
	C1223.810791,960.252441 1223.818115,1145.659302 1223.800415,1331.066162 
	C1223.800171,1334.049072 1223.488525,1337.031860 1222.427368,1340.010742 
	C1170.277100,1340.004395 1119.021606,1339.944702 1067.766479,1340.087769 
	C1062.535889,1340.102417 1057.308838,1341.334961 1052.080078,1342.002563 
	C1051.988525,1337.345703 1051.817017,1332.688965 1051.816772,1328.032104 
	C1051.810059,1155.579346 1051.854248,983.126526 1051.758667,810.673828 
	C1051.751099,797.065125 1050.786865,783.456970 1050.364502,768.928833 
z"/>
<path fill="#4C2177" opacity="1.000000" stroke="none" 
	d="
M1051.982422,1342.935669 
	C1057.308838,1341.334961 1062.535889,1340.102417 1067.766479,1340.087769 
	C1119.021606,1339.944702 1170.277100,1340.004395 1222.601807,1340.934204 
	C1223.712036,1343.525024 1223.789185,1345.188110 1223.789307,1346.851318 
	C1223.801636,1514.925171 1223.810791,1682.999023 1223.793457,1851.072876 
	C1223.793091,1854.054443 1223.470703,1857.036133 1223.298706,1860.017822 
	C1207.065186,1859.345215 1190.835327,1858.227661 1174.597290,1858.091553 
	C1139.281860,1857.795410 1103.961670,1858.097412 1068.644897,1857.899048 
	C1063.122437,1857.868042 1058.136108,1858.580933 1052.856934,1861.902344 
	C1051.994751,1860.012817 1051.813843,1858.020874 1051.813965,1856.028809 
	C1051.828491,1685.308838 1051.857056,1514.588745 1051.982422,1342.935669 
z"/>
<path fill="#57106D" opacity="1.000000" stroke="none" 
	d="
M2314.086670,1221.063721 
	C2306.979248,1217.283203 2299.013184,1217.975586 2291.126465,1217.982544 
	C2248.676514,1218.019531 2206.226318,1217.932861 2163.776855,1218.086426 
	C2158.562988,1218.105347 2153.353271,1219.304565 2147.100098,1219.120483 
	C2144.769775,1204.415894 2143.551270,1190.540649 2142.176514,1176.681030 
	C2140.080811,1155.550903 2138.621338,1134.322388 2135.544189,1113.333130 
	C2131.021973,1082.488159 2125.716797,1051.741943 2120.018311,1021.088867 
	C2110.047607,967.453491 2096.621094,914.644836 2079.823730,862.739319 
	C2067.031738,823.210388 2052.897461,784.167114 2035.251465,746.477112 
	C2031.181763,737.784790 2027.602661,728.862732 2023.797852,720.046387 
	C2024.951538,719.148560 2027.013306,718.314026 2027.081055,717.340576 
	C2027.254517,714.848572 2026.540771,712.294922 2026.093018,709.140625 
	C2028.929688,708.692810 2031.108643,708.052979 2033.288940,708.048889 
	C2067.563477,707.984558 2101.839355,707.887024 2136.111816,708.153381 
	C2140.181396,708.184937 2144.257324,710.235291 2148.286621,711.489624 
	C2150.441406,712.160461 2152.503418,713.130005 2155.388428,713.958008 
	C2173.196777,741.492310 2189.401123,769.491089 2203.218506,798.810181 
	C2233.607422,863.292175 2257.884033,929.971863 2276.275879,998.872009 
	C2287.500000,1040.920166 2296.281006,1083.453369 2303.397461,1126.321289 
	C2307.248535,1149.520874 2309.393066,1173.007446 2312.142334,1196.383911 
	C2313.070801,1204.276367 2313.491455,1212.228394 2314.086670,1221.063721 
z"/>
<path fill="#285596" opacity="1.000000" stroke="none" 
	d="
M1140.124146,2687.730469 
	C1152.651245,2701.708008 1159.880615,2718.286133 1163.837891,2737.960449 
	C1160.719238,2740.365723 1157.778076,2741.885986 1154.821289,2741.916992 
	C1136.045044,2742.114502 1117.265259,2741.983398 1098.127197,2741.338379 
	C1091.135742,2724.297607 1079.354248,2713.728760 1062.232300,2708.963379 
	C1043.733032,2703.814453 1025.887085,2705.777344 1008.316833,2712.284424 
	C1008.316833,2722.833252 1008.316833,2732.398438 1007.359619,2741.970703 
	C988.878052,2741.982178 971.352356,2741.878662 953.830017,2742.073975 
	C949.967285,2742.116943 946.116272,2743.220215 942.259888,2743.835449 
	C935.273438,2739.381836 932.464417,2732.645508 931.957214,2724.727539 
	C931.144836,2712.043945 935.197021,2700.821045 943.868530,2690.258545 
	C950.212158,2690.622803 955.102112,2691.897461 959.995300,2691.909912 
	C1015.446594,2692.051270 1070.898804,2692.100342 1126.348999,2691.814453 
	C1130.947510,2691.790527 1135.532715,2689.153320 1140.124146,2687.730469 
z"/>
<path fill="#57106D" opacity="1.000000" stroke="none" 
	d="
M1960.749512,2842.010010 
	C1959.868286,2824.614990 1958.987061,2807.220215 1959.081543,2788.903809 
	C2001.961182,2787.985352 2043.865356,2787.927246 2085.768799,2788.084717 
	C2089.961670,2788.100342 2094.149902,2789.424805 2098.340332,2790.142090 
	C2094.340088,2794.884033 2090.339844,2799.625732 2085.618652,2805.221924 
	C2088.872314,2809.888672 2092.527344,2814.820312 2095.839355,2819.972656 
	C2098.835449,2824.633789 2101.456787,2829.535645 2103.519531,2835.415771 
	C2099.275146,2837.000244 2095.760010,2837.886719 2092.233887,2837.931152 
	C2078.780518,2838.101807 2065.322754,2837.918457 2051.868896,2838.061768 
	C2048.688477,2838.095459 2045.516357,2838.885986 2042.340454,2839.328125 
	C2038.660522,2840.703369 2034.980713,2842.078369 2029.857666,2843.379883 
	C2024.829102,2842.871094 2021.246216,2842.082031 2017.658325,2842.059082 
	C1998.689453,2841.936523 1979.719238,2842.006836 1960.749512,2842.010010 
z"/>
<path fill="#432D7F" opacity="1.000000" stroke="none" 
	d="
M1859.845337,2886.262939 
	C1840.562988,2882.487549 1821.254395,2884.251221 1801.940674,2885.948975 
	C1799.321899,2886.179443 1796.677124,2886.114502 1792.760620,2886.212402 
	C1790.979980,2886.421143 1790.577881,2886.727539 1790.270386,2887.157715 
	C1789.361694,2887.438477 1788.453003,2887.718994 1786.643066,2887.339355 
	C1783.415894,2882.392822 1779.318115,2884.100098 1775.977661,2884.086670 
	C1745.569824,2883.963379 1715.161133,2884.026123 1684.752686,2884.034424 
	C1684.634766,2882.445312 1684.516968,2880.855957 1684.884766,2878.169434 
	C1685.608276,2876.215576 1685.846069,2875.358643 1686.083984,2874.501953 
	C1692.424316,2862.431885 1704.428101,2858.563721 1715.901733,2853.942871 
	C1717.398315,2853.340576 1718.973755,2852.933594 1721.913330,2852.517578 
	C1727.934570,2855.748779 1733.108154,2856.073730 1738.528931,2856.064209 
	C1790.641724,2855.972412 1842.755127,2856.099854 1894.867554,2855.922852 
	C1903.739990,2855.892822 1912.608521,2854.718262 1921.478760,2854.072266 
	C1923.995850,2858.713135 1926.112061,2863.636719 1929.132935,2867.922363 
	C1932.775635,2873.090088 1935.149536,2878.213135 1932.277832,2884.263184 
	C1930.397461,2883.330811 1929.318359,2882.175049 1928.231934,2882.167969 
	C1907.810669,2882.036377 1887.386475,2881.901123 1866.969360,2882.204346 
	C1864.575195,2882.239990 1862.219116,2884.847656 1859.845337,2886.262939 
z"/>
<path fill="#285596" opacity="1.000000" stroke="none" 
	d="
M1909.722534,2692.007568 
	C1915.988281,2702.712158 1917.450073,2714.840332 1919.966431,2726.652588 
	C1920.511230,2729.210205 1920.895508,2731.802490 1920.423096,2735.171875 
	C1900.283691,2735.993164 1881.074829,2736.021484 1861.373535,2735.483398 
	C1859.819824,2730.094482 1859.096069,2725.165283 1857.615601,2720.474854 
	C1855.583740,2714.037354 1851.643066,2712.246826 1845.283325,2714.772217 
	C1842.597290,2715.838867 1839.898315,2717.515625 1837.919678,2719.595215 
	C1832.927002,2724.841553 1828.339844,2730.474121 1822.678711,2735.966797 
	C1800.461670,2735.981689 1779.156128,2735.981689 1757.850708,2735.981934 
	C1763.158936,2719.233887 1771.286499,2704.009277 1783.826904,2690.447754 
	C1789.093750,2690.972656 1792.994507,2691.911377 1796.898071,2691.923584 
	C1834.505981,2692.040527 1872.114258,2692.001709 1909.722534,2692.007568 
z"/>
<path fill="#255A99" opacity="1.000000" stroke="none" 
	d="
M1563.682495,2699.954834 
	C1564.959595,2704.226074 1566.236816,2708.497559 1567.831909,2713.832275 
	C1574.524780,2706.866943 1580.494141,2700.654297 1587.899658,2694.275146 
	C1593.535889,2694.738770 1597.730469,2695.866943 1601.936890,2695.913574 
	C1620.108521,2696.115234 1638.284180,2695.916748 1656.456543,2696.079346 
	C1659.589844,2696.107422 1662.713745,2697.179199 1665.842041,2697.768799 
	C1655.744629,2708.363525 1645.647217,2718.958496 1634.000000,2729.804199 
	C1586.365601,2730.028076 1540.281006,2730.000977 1494.196533,2729.974121 
	C1492.760620,2719.918457 1491.324829,2709.862793 1490.937744,2698.908203 
	C1515.466187,2697.894043 1538.946045,2697.778320 1562.425781,2697.662598 
	C1562.425781,2697.662598 1562.350464,2697.807129 1562.363770,2698.223633 
	C1562.637695,2699.251709 1563.072876,2699.689941 1563.682495,2699.954834 
z"/>
<path fill="#511771" opacity="1.000000" stroke="none" 
	d="
M1921.605225,2853.145996 
	C1912.608521,2854.718262 1903.739990,2855.892822 1894.867554,2855.922852 
	C1842.755127,2856.099854 1790.641724,2855.972412 1738.528931,2856.064209 
	C1733.108154,2856.073730 1727.934570,2855.748779 1722.603271,2852.274414 
	C1727.165527,2848.969727 1729.720703,2844.477783 1730.259644,2838.409912 
	C1730.605225,2834.519287 1731.927856,2830.715088 1733.891846,2826.938965 
	C1748.713257,2827.337158 1762.461182,2827.523438 1776.194336,2828.074707 
	C1781.372192,2828.282227 1786.516113,2829.333984 1791.756348,2830.848389 
	C1793.192749,2833.172607 1794.422974,2835.772949 1795.924683,2835.940430 
	C1804.433594,2836.889648 1813.000854,2837.567871 1821.560669,2837.748047 
	C1834.683105,2838.024170 1847.815552,2837.820557 1861.231689,2837.820557 
	C1861.831665,2835.001709 1862.578857,2831.492188 1864.305420,2827.986572 
	C1884.159546,2827.993652 1903.034058,2827.996826 1921.908691,2828.000000 
	C1921.849609,2836.073242 1921.790527,2844.146729 1921.605225,2853.145996 
z"/>
<path fill="#255A99" opacity="1.000000" stroke="none" 
	d="
M1365.903931,2725.905273 
	C1366.763550,2724.508301 1367.623169,2723.111084 1369.272583,2720.430664 
	C1358.926636,2719.424805 1349.331787,2719.990723 1339.722412,2721.057373 
	C1317.055664,2723.573975 1294.455811,2727.284424 1271.547363,2726.084229 
	C1266.065308,2725.796875 1260.470825,2724.447021 1255.276367,2722.603760 
	C1246.462036,2719.476318 1241.341797,2712.845459 1240.936646,2702.753418 
	C1311.055298,2702.019775 1380.151978,2702.039551 1449.248779,2702.059570 
	C1448.006958,2714.383057 1439.330444,2721.741943 1429.593750,2729.641602 
	C1422.326660,2729.296143 1416.501587,2728.248047 1410.654419,2728.105713 
	C1398.811157,2727.817139 1386.953247,2728.161621 1375.107788,2727.922852 
	C1372.027588,2727.860840 1368.971191,2726.609863 1365.903931,2725.905273 
z"/>
<path fill="#3A3984" opacity="1.000000" stroke="none" 
	d="
M1245.723633,2681.881104 
	C1250.439697,2675.195068 1257.916626,2672.854248 1264.959229,2670.081299 
	C1280.237305,2664.065674 1296.417480,2661.676514 1312.589355,2660.093018 
	C1342.022461,2657.211670 1371.566284,2655.372070 1401.152832,2656.416016 
	C1410.343506,2656.740234 1419.663818,2658.434326 1428.555176,2660.857178 
	C1438.415039,2663.543701 1445.113403,2670.449951 1447.138428,2681.394287 
	C1441.713745,2682.811279 1437.159058,2683.904297 1432.602295,2683.913574 
	C1375.851562,2684.030518 1319.100342,2684.048340 1262.349731,2683.898193 
	C1256.805908,2683.883301 1251.265625,2682.583984 1245.723633,2681.881104 
z"/>
<path fill="#57106D" opacity="1.000000" stroke="none" 
	d="
M1169.285034,2779.946777 
	C1170.317017,2802.378418 1166.407471,2824.050293 1158.150146,2845.114258 
	C1153.801392,2844.670898 1150.551636,2844.066162 1147.298218,2844.045654 
	C1131.390991,2843.944824 1115.480957,2844.125732 1099.576050,2843.909668 
	C1095.712036,2843.857178 1091.863403,2842.679688 1088.087280,2841.278564 
	C1096.430420,2821.174805 1100.304321,2800.801025 1103.050903,2779.964600 
	C1125.748779,2779.966064 1147.516846,2779.956299 1169.285034,2779.946777 
z"/>
<path fill="#383D87" opacity="1.000000" stroke="none" 
	d="
M1268.247559,2904.276123 
	C1286.050903,2902.528564 1303.855225,2900.789307 1321.656250,2899.017334 
	C1322.969238,2898.886719 1324.251343,2898.355469 1325.561157,2898.293213 
	C1340.805542,2897.571045 1356.080566,2896.000732 1371.291382,2896.469971 
	C1387.116211,2896.958008 1403.234253,2896.999512 1418.504272,2902.172607 
	C1425.002197,2904.373535 1431.059082,2907.876709 1436.826538,2911.500977 
	C1432.437622,2912.806396 1428.539307,2913.908447 1424.639404,2913.914307 
	C1355.495972,2914.018799 1286.352417,2914.024902 1217.209106,2913.897217 
	C1213.354858,2913.890137 1209.502808,2912.540039 1205.649902,2911.814941 
	C1212.588989,2901.383057 1219.528076,2890.951172 1227.951294,2880.220703 
	C1246.458862,2880.667969 1263.482300,2881.413330 1280.505737,2882.158447 
	C1276.285767,2888.877930 1272.065796,2895.597656 1267.454956,2903.173828 
	C1267.458618,2904.112549 1267.853149,2904.194336 1268.247559,2904.276123 
z"/>
<path fill="#5E0566" opacity="1.000000" stroke="none" 
	d="
M1361.814697,2795.697266 
	C1359.690308,2797.262451 1357.565796,2798.827393 1354.713257,2800.928711 
	C1362.251343,2806.718506 1369.872803,2805.852783 1376.520142,2807.977783 
	C1383.776001,2810.297363 1391.338379,2811.799805 1398.359375,2814.659180 
	C1402.486816,2816.340088 1405.821289,2819.968262 1408.810791,2823.361084 
	C1344.935059,2823.996094 1281.760986,2823.990967 1218.586914,2823.985840 
	C1218.533569,2815.536133 1223.250000,2810.009033 1230.721436,2807.931152 
	C1240.503540,2805.210449 1250.644653,2803.714355 1260.685059,2802.008301 
	C1270.096802,2800.409180 1279.704102,2799.767822 1288.978516,2797.632568 
	C1293.905884,2796.498047 1298.309204,2793.087646 1304.335938,2790.737061 
	C1308.947998,2791.182861 1312.169067,2791.912354 1315.399048,2791.952881 
	C1326.934448,2792.098389 1338.485474,2791.700684 1350.002808,2792.178955 
	C1353.981934,2792.344238 1357.879761,2794.467773 1361.814697,2795.697266 
z"/>
<path fill="#432D7F" opacity="1.000000" stroke="none" 
	d="
M1480.687134,2896.092773 
	C1484.667969,2884.340820 1488.648926,2872.588867 1494.094238,2860.388672 
	C1516.702148,2859.959961 1537.845337,2859.986328 1558.988647,2859.998291 
	C1574.270142,2860.006836 1589.551880,2860.039307 1604.833008,2859.961914 
	C1608.355957,2859.944092 1612.318848,2860.962158 1614.690186,2856.972168 
	C1621.002075,2867.539551 1627.313965,2878.107178 1632.987793,2889.449463 
	C1628.479004,2890.816162 1624.614380,2891.868164 1620.736816,2891.918945 
	C1605.557251,2892.117676 1590.371338,2891.859863 1575.192871,2892.098145 
	C1571.354492,2892.158203 1567.535034,2893.424805 1563.706909,2894.136719 
	C1559.069092,2887.280762 1554.448975,2880.412354 1549.785156,2873.574219 
	C1547.747925,2870.587158 1545.621338,2867.660645 1542.830566,2863.708740 
	C1535.869019,2874.510986 1532.504639,2885.938477 1526.554688,2897.369141 
	C1510.460449,2897.391602 1495.573853,2896.742188 1480.687134,2896.092773 
z"/>
<path fill="#255A99" opacity="1.000000" stroke="none" 
	d="
M1192.753052,2946.037598 
	C1192.669800,2944.389893 1192.586670,2942.741943 1193.010864,2940.085693 
	C1193.728027,2938.716553 1193.883545,2938.333740 1193.984863,2937.928711 
	C1194.479858,2935.676514 1194.974854,2933.424316 1196.782959,2930.586182 
	C1281.375244,2929.997803 1364.654541,2929.995605 1447.933838,2929.993164 
	C1447.159058,2935.862305 1446.384155,2941.731201 1444.480103,2947.450684 
	C1440.114014,2946.864258 1436.877441,2946.048096 1433.640259,2946.045898 
	C1353.344482,2945.990967 1273.048828,2946.021973 1192.753052,2946.037598 
z"/>
<path fill="#2E4D91" opacity="1.000000" stroke="none" 
	d="
M1447.993408,2929.240234 
	C1364.654541,2929.995605 1281.375244,2929.997803 1197.180908,2930.003418 
	C1199.066284,2924.242676 1201.866577,2918.479004 1205.158325,2912.265137 
	C1209.502808,2912.540039 1213.354858,2913.890137 1217.209106,2913.897217 
	C1286.352417,2914.024902 1355.495972,2914.018799 1424.639404,2913.914307 
	C1428.539307,2913.908447 1432.437622,2912.806396 1437.166138,2912.101807 
	C1444.371338,2915.645508 1447.010864,2921.579346 1447.993408,2929.240234 
z"/>
<path fill="#55136F" opacity="1.000000" stroke="none" 
	d="
M1218.406250,2824.756836 
	C1281.760986,2823.990967 1344.935059,2823.996094 1409.044678,2824.006104 
	C1415.557983,2837.637207 1409.665527,2847.802490 1395.545898,2847.653564 
	C1385.710449,2847.550049 1375.895386,2845.916016 1366.062500,2845.066650 
	C1352.944824,2843.933105 1339.822388,2842.846924 1326.694214,2841.843506 
	C1320.784668,2841.391846 1315.620361,2843.252441 1310.260986,2847.193604 
	C1305.426147,2845.930420 1301.733643,2844.209473 1298.007812,2844.133301 
	C1283.274536,2843.833008 1268.530640,2844.048340 1253.790771,2844.072266 
	C1250.224731,2844.605469 1246.667725,2845.209717 1243.091309,2845.658691 
	C1229.617310,2847.351562 1219.213989,2838.907227 1218.406250,2824.756836 
z"/>
<path fill="#432D7F" opacity="1.000000" stroke="none" 
	d="
M753.061340,2856.121826 
	C750.734863,2866.013672 749.418823,2876.106689 742.882019,2884.680176 
	C731.728394,2899.309082 716.703186,2906.807373 699.011230,2905.331543 
	C678.646240,2903.632812 662.482056,2893.719727 655.466980,2872.982178 
	C653.797180,2868.045898 653.080566,2862.787354 652.942505,2856.844727 
	C686.993408,2856.048828 720.027405,2856.085205 753.061340,2856.121826 
z"/>
<path fill="#196BA3" opacity="1.000000" stroke="none" 
	d="
M1192.592285,2946.774414 
	C1273.048828,2946.021973 1353.344482,2945.990967 1433.640259,2946.045898 
	C1436.877441,2946.048096 1440.114014,2946.864258 1443.922363,2948.004395 
	C1436.883789,2962.235596 1432.668457,2964.176025 1416.998047,2961.098389 
	C1392.390869,2956.265381 1367.439209,2954.823975 1342.581055,2956.556396 
	C1316.493530,2958.374756 1290.586792,2962.652832 1264.542114,2965.269775 
	C1248.697998,2966.862061 1232.753906,2967.777832 1216.833496,2968.200928 
	C1202.425293,2968.583496 1195.487549,2962.199951 1192.592285,2946.774414 
z"/>
<path fill="#57106D" opacity="1.000000" stroke="none" 
	d="
M956.098999,2847.989502 
	C955.340759,2828.769775 954.633667,2809.548096 953.778748,2790.332520 
	C953.617981,2786.720703 952.867188,2783.135254 953.430298,2778.734131 
	C972.751160,2777.923828 991.030457,2777.917236 1009.501953,2778.841309 
	C1009.572937,2801.852051 1009.451721,2823.931885 1008.435181,2846.006348 
	C990.392090,2846.641846 973.128967,2844.299805 956.098999,2847.989502 
z"/>
<path fill="#2E4D91" opacity="1.000000" stroke="none" 
	d="
M1245.121582,2682.277344 
	C1251.265625,2682.583984 1256.805908,2683.883301 1262.349731,2683.898193 
	C1319.100342,2684.048340 1375.851562,2684.030518 1432.602295,2683.913574 
	C1437.159058,2683.904297 1441.713745,2682.811279 1447.093140,2682.116455 
	C1448.491821,2688.116699 1449.066772,2694.222168 1449.445312,2701.193848 
	C1380.151978,2702.039551 1311.055298,2702.019775 1241.029541,2702.002930 
	C1239.377808,2695.059814 1238.956299,2688.182617 1245.121582,2682.277344 
z"/>
<path fill="#383D87" opacity="1.000000" stroke="none" 
	d="
M1909.589111,2691.334473 
	C1872.114258,2692.001709 1834.505981,2692.040527 1796.898071,2691.923584 
	C1792.994507,2691.911377 1789.093750,2690.972656 1784.397949,2690.095703 
	C1795.549683,2671.591309 1812.776367,2661.189941 1833.493652,2656.265137 
	C1845.524048,2653.405273 1857.669189,2652.762207 1869.945801,2655.691406 
	C1886.623535,2659.671143 1898.064331,2669.946777 1906.257935,2684.460693 
	C1907.400146,2686.484375 1908.393311,2688.592529 1909.589111,2691.334473 
z"/>
<path fill="#34448C" opacity="1.000000" stroke="none" 
	d="
M1139.874268,2687.119385 
	C1135.532715,2689.153320 1130.947510,2691.790527 1126.348999,2691.814453 
	C1070.898804,2692.100342 1015.446594,2692.051270 959.995300,2691.909912 
	C955.102112,2691.897461 950.212158,2690.622803 944.424377,2689.867188 
	C947.042297,2681.893799 953.808350,2677.165527 961.997803,2672.272461 
	C968.018311,2672.761719 972.573669,2673.895264 977.132385,2673.909424 
	C1020.642456,2674.044434 1064.153442,2674.066650 1107.663330,2673.894775 
	C1113.209961,2673.872803 1118.751709,2672.554688 1124.295654,2671.836670 
	C1129.405273,2676.727295 1134.514771,2681.617920 1139.874268,2687.119385 
z"/>
<path fill="#511771" opacity="1.000000" stroke="none" 
	d="
M1614.544434,2856.310059 
	C1612.318848,2860.962158 1608.355957,2859.944092 1604.833008,2859.961914 
	C1589.551880,2860.039307 1574.270142,2860.006836 1558.988647,2859.998291 
	C1537.845337,2859.986328 1516.702148,2859.959961 1494.587646,2859.887451 
	C1497.578979,2849.632812 1501.541382,2839.430908 1506.694336,2828.736328 
	C1511.427002,2828.825928 1514.966187,2829.889893 1518.511963,2829.912354 
	C1542.292480,2830.062012 1566.075317,2830.078857 1589.855347,2829.892578 
	C1593.356445,2829.865234 1596.847290,2828.535889 1600.343018,2827.808594 
	C1605.028198,2837.088623 1609.713501,2846.368408 1614.544434,2856.310059 
z"/>
<path fill="#432D7F" opacity="1.000000" stroke="none" 
	d="
M1123.929199,2671.262207 
	C1118.751709,2672.554688 1113.209961,2673.872803 1107.663330,2673.894775 
	C1064.153442,2674.066650 1020.642456,2674.044434 977.132385,2673.909424 
	C972.573669,2673.895264 968.018311,2672.761719 962.611511,2672.010742 
	C970.657349,2664.150635 981.078491,2659.179199 992.038025,2655.232666 
	C1025.973267,2643.011230 1060.222290,2641.412354 1094.207031,2654.231934 
	C1104.584717,2658.146240 1113.809814,2665.116699 1123.929199,2671.262207 
z"/>
<path fill="#2E4D91" opacity="1.000000" stroke="none" 
	d="
M941.966492,2923.982910 
	C945.091736,2920.456787 948.162048,2916.879395 951.366943,2913.427246 
	C952.844116,2911.836182 954.584900,2910.489746 956.784302,2908.004395 
	C957.569824,2906.007080 957.777344,2905.037842 958.922974,2904.050781 
	C976.413696,2904.038086 992.966248,2904.042969 1009.803589,2904.754395 
	C1011.369446,2909.024658 1014.172974,2907.999268 1016.592468,2907.419434 
	C1020.983032,2906.367188 1025.309326,2905.046631 1030.449707,2904.183594 
	C1034.798706,2905.022705 1038.358032,2905.923340 1041.922119,2905.942627 
	C1065.468506,2906.070557 1089.017212,2905.891113 1112.562134,2906.121094 
	C1116.726562,2906.161865 1120.876587,2907.656006 1125.033203,2908.479248 
	C1125.033203,2908.479248 1124.670166,2909.309570 1123.892090,2909.905273 
	C1122.793091,2911.130615 1122.472290,2911.760498 1122.151611,2912.390381 
	C1117.243652,2917.564697 1112.335693,2922.739014 1106.569214,2927.253906 
	C1102.928833,2922.150879 1098.476929,2924.115234 1094.814697,2924.104492 
	C1043.865601,2923.954346 992.915955,2923.991699 941.966492,2923.982910 
z"/>
<path fill="#196BA3" opacity="1.000000" stroke="none" 
	d="
M1086.558105,2944.269775 
	C1071.119385,2955.486572 1054.169067,2963.458984 1035.411133,2967.088135 
	C1010.310303,2971.944336 985.260071,2973.077637 960.745728,2963.838623 
	C950.722534,2960.061035 942.625793,2954.089844 939.833374,2942.734375 
	C985.451233,2942.031006 1030.244873,2941.960205 1075.037842,2942.098877 
	C1078.880127,2942.110840 1082.718140,2943.513428 1086.558105,2944.269775 
z"/>
<path fill="#285596" opacity="1.000000" stroke="none" 
	d="
M2015.660400,2692.046875 
	C2021.888916,2705.417236 2024.858398,2719.608398 2025.499023,2735.378174 
	C2021.151001,2737.043457 2017.577881,2737.911133 2013.999023,2737.935059 
	C1994.708130,2738.064453 1975.415771,2737.984619 1956.123901,2737.977051 
	C1955.357544,2729.487549 1954.362671,2721.010010 1953.912598,2712.503662 
	C1953.651733,2707.574463 1954.267578,2702.598877 1954.968994,2696.456543 
	C1955.747192,2694.841309 1955.894043,2694.366699 1955.889160,2693.845459 
	C1955.889160,2693.845459 1955.917969,2694.015137 1956.822998,2693.985352 
	C1972.200073,2693.967285 1986.674683,2694.139893 2001.142578,2693.901611 
	C2005.990845,2693.821777 2010.821655,2692.695068 2015.660400,2692.046875 
z"/>
<path fill="#5E0566" opacity="1.000000" stroke="none" 
	d="
M1600.188232,2827.084473 
	C1596.847290,2828.535889 1593.356445,2829.865234 1589.855347,2829.892578 
	C1566.075317,2830.078857 1542.292480,2830.062012 1518.511963,2829.912354 
	C1514.966187,2829.889893 1511.427002,2828.825928 1507.080933,2828.127197 
	C1508.217773,2822.375000 1510.714600,2816.856201 1511.930664,2811.067871 
	C1512.986328,2806.042969 1512.592529,2800.713623 1513.642212,2794.758545 
	C1539.416138,2794.001953 1564.387329,2794.005371 1589.358398,2794.008789 
	C1592.916748,2804.792480 1596.475220,2815.576416 1600.188232,2827.084473 
z"/>
<path fill="#255A99" opacity="1.000000" stroke="none" 
	d="
M1087.211670,2944.133789 
	C1082.718140,2943.513428 1078.880127,2942.110840 1075.037842,2942.098877 
	C1030.244873,2941.960205 985.451233,2942.031006 939.793579,2942.077148 
	C937.370544,2936.153564 938.230164,2930.470459 941.408752,2924.483887 
	C992.915955,2923.991699 1043.865601,2923.954346 1094.814697,2924.104492 
	C1098.476929,2924.115234 1102.928833,2922.150879 1105.901367,2927.404053 
	C1100.016357,2933.474854 1093.940796,2938.736328 1087.211670,2944.133789 
z"/>
<path fill="#285596" opacity="1.000000" stroke="none" 
	d="
M2073.739502,2731.610352 
	C2079.475830,2721.957764 2085.226318,2712.313232 2090.942139,2702.648682 
	C2093.646973,2698.075195 2096.285400,2693.462402 2100.356201,2688.427002 
	C2118.354980,2688.014404 2134.951660,2688.042236 2151.548340,2688.069824 
	C2148.969971,2704.780762 2142.957764,2720.215332 2133.060059,2735.312988 
	C2115.887939,2735.987305 2099.896729,2735.970215 2083.905518,2736.015381 
	C2079.833984,2736.026855 2075.750488,2736.264648 2073.739502,2731.610352 
z"/>
<path fill="#511771" opacity="1.000000" stroke="none" 
	d="
M753.323120,2855.232422 
	C720.027405,2856.085205 686.993408,2856.048828 653.031677,2856.018555 
	C651.592468,2846.892578 651.049377,2837.757324 656.144104,2828.488525 
	C688.165039,2827.985352 718.706299,2828.010010 749.247498,2828.034668 
	C750.210449,2832.190674 751.173340,2836.346924 752.175293,2841.560791 
	C752.214355,2842.618652 752.752136,2843.456299 752.752136,2843.456299 
	C753.029724,2847.085205 753.307312,2850.713867 753.323120,2855.232422 
z"/>
<path fill="#3A3984" opacity="1.000000" stroke="none" 
	d="
M2123.502441,2868.069580 
	C2128.406494,2880.821777 2133.310791,2893.573730 2137.273193,2907.147705 
	C2120.761963,2907.979980 2105.192383,2907.996582 2089.623047,2907.996094 
	C2085.226074,2907.996094 2080.643555,2907.640869 2080.041748,2913.840332 
	C2073.065918,2899.677490 2066.090088,2885.514648 2059.749512,2870.527832 
	C2063.922852,2869.142334 2067.456787,2868.126953 2070.999268,2868.096191 
	C2088.499023,2867.944092 2106.001221,2868.052979 2123.502441,2868.069580 
z"/>
<path fill="#4C2177" opacity="1.000000" stroke="none" 
	d="
M1088.007568,2842.019531 
	C1091.863403,2842.679688 1095.712036,2843.857178 1099.576050,2843.909668 
	C1115.480957,2844.125732 1131.390991,2843.944824 1147.298218,2844.045654 
	C1150.551636,2844.066162 1153.801392,2844.670898 1157.639771,2845.646484 
	C1153.860718,2857.254395 1149.494873,2868.221924 1144.004395,2879.021484 
	C1139.285645,2878.565430 1135.693115,2878.050293 1132.097412,2878.027344 
	C1109.911621,2877.886230 1087.724976,2877.855957 1065.765869,2877.138428 
	C1073.331299,2864.998535 1080.669434,2853.509033 1088.007568,2842.019531 
z"/>
<path fill="#432D7F" opacity="1.000000" stroke="none" 
	d="
M1958.134277,2773.977539 
	C1957.563354,2769.179932 1956.992432,2764.382324 1957.476807,2758.785156 
	C1982.110229,2757.980469 2005.688477,2757.974854 2029.266602,2757.969482 
	C2028.905029,2760.836426 2028.543579,2763.703369 2028.140869,2766.898438 
	C2035.054321,2769.510254 2039.749390,2765.135254 2044.463379,2762.067139 
	C2048.304688,2759.567383 2051.437256,2755.978760 2055.689453,2753.389648 
	C2059.526855,2754.601318 2062.553467,2755.866699 2065.592041,2755.896729 
	C2084.384277,2756.082275 2103.179443,2755.990234 2121.973633,2755.990234 
	C2118.521240,2761.823730 2115.069092,2767.657471 2110.071777,2773.777344 
	C2058.395752,2774.034912 2008.265137,2774.006104 1958.134277,2773.977539 
z"/>
<path fill="#432D7F" opacity="1.000000" stroke="none" 
	d="
M1169.456177,2779.088867 
	C1147.516846,2779.956299 1125.748779,2779.966064 1103.029663,2779.041992 
	C1102.889404,2765.859375 1101.530151,2753.826416 1098.486694,2741.960693 
	C1117.265259,2741.983398 1136.045044,2742.114502 1154.821289,2741.916992 
	C1157.778076,2741.885986 1160.719238,2740.365723 1163.890137,2738.743652 
	C1165.470581,2746.677734 1166.828735,2755.401611 1168.227783,2765.381348 
	C1168.442383,2767.124268 1168.744263,2767.511230 1169.174316,2767.798340 
	C1169.325317,2771.275879 1169.476318,2774.753418 1169.456177,2779.088867 
z"/>
<path fill="#3A3984" opacity="1.000000" stroke="none" 
	d="
M1065.538696,2877.788818 
	C1087.724976,2877.855957 1109.911621,2877.886230 1132.097412,2878.027344 
	C1135.693115,2878.050293 1139.285645,2878.565430 1143.468506,2879.457031 
	C1138.081177,2889.341309 1132.104980,2898.621826 1125.581055,2908.190918 
	C1120.876587,2907.656006 1116.726562,2906.161865 1112.562134,2906.121094 
	C1089.017212,2905.891113 1065.468506,2906.070557 1041.922119,2905.942627 
	C1038.358032,2905.923340 1034.798706,2905.022705 1030.913452,2903.664062 
	C1043.805664,2896.650635 1055.131348,2887.861328 1065.538696,2877.788818 
z"/>
<path fill="#4C2177" opacity="1.000000" stroke="none" 
	d="
M1960.559814,2842.899414 
	C1979.719238,2842.006836 1998.689453,2841.936523 2017.658325,2842.059082 
	C2021.246216,2842.082031 2024.829102,2842.871094 2029.176270,2843.636719 
	C2026.199829,2850.912109 2025.831177,2858.470215 2025.792358,2866.122070 
	C2025.767212,2871.069336 2025.476685,2876.015625 2024.194824,2880.992676 
	C2019.818726,2880.678711 2016.554565,2880.056152 2013.286987,2880.036865 
	C1996.302612,2879.936523 1979.317139,2879.989502 1962.332153,2879.989258 
	C1961.678223,2867.922363 1961.024170,2855.855469 1960.559814,2842.899414 
z"/>
<path fill="#383D87" opacity="1.000000" stroke="none" 
	d="
M1684.615967,2884.741211 
	C1715.161133,2884.026123 1745.569824,2883.963379 1775.977661,2884.086670 
	C1779.318115,2884.100098 1783.415894,2882.392822 1785.946777,2887.498535 
	C1786.643066,2896.336670 1787.134644,2904.355225 1786.554932,2913.206543 
	C1770.686157,2914.026367 1755.887207,2913.895752 1741.092651,2914.096680 
	C1738.018311,2914.138184 1734.960693,2915.410156 1731.895264,2916.115234 
	C1730.851807,2911.044922 1729.808228,2905.974365 1728.531860,2899.772949 
	C1723.900269,2900.733643 1719.256714,2901.926270 1714.539185,2902.606689 
	C1710.323486,2903.214600 1705.889404,2904.073730 1701.791992,2903.387451 
	C1691.888794,2901.728271 1686.182373,2895.357910 1684.615967,2884.741211 
z"/>
<path fill="#5E0566" opacity="1.000000" stroke="none" 
	d="
M1791.675537,2830.000977 
	C1786.516113,2829.333984 1781.372192,2828.282227 1776.194336,2828.074707 
	C1762.461182,2827.523438 1748.713257,2827.337158 1734.388550,2826.365479 
	C1736.122803,2814.153076 1738.439819,2802.580566 1742.220459,2790.489014 
	C1757.209351,2789.979736 1770.738281,2789.812988 1784.258057,2790.089600 
	C1789.452271,2790.195801 1794.625732,2791.313477 1799.799072,2792.749023 
	C1797.084717,2805.685791 1794.380127,2817.843262 1791.675537,2830.000977 
z"/>
<path fill="#5E0566" opacity="1.000000" stroke="none" 
	d="
M749.167236,2827.377930 
	C718.706299,2828.010010 688.165039,2827.985352 656.658752,2827.925049 
	C666.758118,2794.824707 704.238831,2788.299072 727.855225,2802.154541 
	C737.484314,2807.804199 744.304321,2816.545654 749.167236,2827.377930 
z"/>
<path fill="#3A3984" opacity="1.000000" stroke="none" 
	d="
M1009.309753,2777.910400 
	C991.030457,2777.917236 972.751160,2777.923828 953.599121,2777.904297 
	C952.249878,2770.972900 951.866150,2764.060059 951.267456,2757.165771 
	C950.787659,2751.641113 948.501892,2747.197754 942.623291,2744.436035 
	C946.116272,2743.220215 949.967285,2742.116943 953.830017,2742.073975 
	C971.352356,2741.878662 988.878052,2741.982178 1007.872803,2742.613037 
	C1009.332031,2754.802246 1009.320923,2766.356201 1009.309753,2777.910400 
z"/>
<path fill="#255A99" opacity="1.000000" stroke="none" 
	d="
M1651.211548,2918.093262 
	C1652.277222,2921.169189 1653.176147,2924.315430 1654.436523,2927.309570 
	C1661.315430,2943.652100 1651.986694,2957.620605 1634.373535,2958.488770 
	C1620.673828,2959.164062 1610.716431,2952.161621 1601.646973,2943.836182 
	C1594.372192,2937.157715 1588.489380,2928.962891 1582.797363,2920.739258 
	C1593.255859,2920.024658 1602.912964,2920.245361 1612.553589,2919.943115 
	C1625.446289,2919.538818 1638.326172,2918.728760 1651.211548,2918.093262 
z"/>
<path fill="#4C2177" opacity="1.000000" stroke="none" 
	d="
M1253.648438,2844.727051 
	C1268.530640,2844.048340 1283.274536,2843.833008 1298.007812,2844.133301 
	C1301.733643,2844.209473 1305.426147,2845.930420 1309.609863,2847.523438 
	C1300.650269,2859.400635 1291.214722,2870.649658 1281.142578,2882.028564 
	C1263.482300,2881.413330 1246.458862,2880.667969 1228.509277,2879.861328 
	C1227.725098,2879.448242 1227.867188,2879.096680 1228.595947,2878.087646 
	C1229.522583,2877.125732 1229.802124,2876.772949 1230.020996,2876.372070 
	C1236.165527,2868.416992 1242.330566,2860.477783 1248.441162,2852.496826 
	C1250.209839,2850.186523 1251.822144,2847.756592 1253.648438,2844.727051 
z"/>
<path fill="#4D1E76" opacity="1.000000" stroke="none" 
	d="
M1958.021851,2774.848633 
	C2008.265137,2774.006104 2058.395752,2774.034912 2109.507080,2774.126465 
	C2106.809570,2779.279297 2103.131592,2784.368652 2098.896973,2789.800293 
	C2094.149902,2789.424805 2089.961670,2788.100342 2085.768799,2788.084717 
	C2043.865356,2787.927246 2001.961182,2787.985352 1959.140503,2787.975098 
	C1958.118896,2783.884766 1958.014038,2779.802246 1958.021851,2774.848633 
z"/>
<path fill="#5E0566" opacity="1.000000" stroke="none" 
	d="
M1922.008423,2827.128418 
	C1903.034058,2827.996826 1884.159546,2827.993652 1864.237305,2827.172119 
	C1863.047974,2815.564209 1862.906372,2804.774902 1863.077637,2793.973633 
	C1863.390503,2793.961670 1864.014648,2793.909180 1864.950684,2793.938477 
	C1885.063232,2793.975586 1904.239746,2793.983887 1923.416382,2793.991943 
	C1922.980347,2804.746826 1922.544312,2815.501709 1922.008423,2827.128418 
z"/>
<path fill="#3A3984" opacity="1.000000" stroke="none" 
	d="
M1621.625488,2743.964844 
	C1615.590576,2750.496582 1609.555542,2757.028564 1602.147095,2763.522461 
	C1598.535889,2762.988281 1596.298462,2762.062256 1594.060547,2762.061279 
	C1563.819336,2762.048096 1533.578247,2762.163574 1503.336914,2762.247070 
	C1501.498901,2756.697754 1499.660889,2751.148193 1498.780273,2744.810547 
	C1540.367065,2744.003174 1580.996216,2743.983887 1621.625488,2743.964844 
z"/>
<path fill="#34448C" opacity="1.000000" stroke="none" 
	d="
M1651.142578,2917.438232 
	C1638.326172,2918.728760 1625.446289,2919.538818 1612.553589,2919.943115 
	C1602.912964,2920.245361 1593.255859,2920.024658 1582.641846,2920.061523 
	C1575.810669,2911.882324 1569.943848,2903.678711 1563.891846,2894.806152 
	C1567.535034,2893.424805 1571.354492,2892.158203 1575.192871,2892.098145 
	C1590.371338,2891.859863 1605.557251,2892.117676 1620.736816,2891.918945 
	C1624.614380,2891.868164 1628.479004,2890.816162 1633.181641,2890.121338 
	C1639.700439,2898.939941 1645.386963,2907.861572 1651.142578,2917.438232 
z"/>
<path fill="#4D1E76" opacity="1.000000" stroke="none" 
	d="
M2123.350586,2867.399902 
	C2106.001221,2868.052979 2088.499023,2867.944092 2070.999268,2868.096191 
	C2067.456787,2868.126953 2063.922852,2869.142334 2059.642822,2869.870361 
	C2055.285889,2862.017578 2051.766113,2853.953125 2047.995972,2846.007324 
	C2046.931763,2843.764893 2045.134644,2841.870361 2043.007080,2839.572266 
	C2045.516357,2838.885986 2048.688477,2838.095459 2051.868896,2838.061768 
	C2065.322754,2837.918457 2078.780518,2838.101807 2092.233887,2837.931152 
	C2095.760010,2837.886719 2099.275146,2837.000244 2103.594238,2836.139404 
	C2108.438232,2841.647949 2112.701172,2847.382324 2116.454590,2853.432617 
	C2119.064941,2857.640381 2120.975342,2862.282471 2123.350586,2867.399902 
z"/>
<path fill="#383D87" opacity="1.000000" stroke="none" 
	d="
M1962.280396,2880.902588 
	C1979.317139,2879.989502 1996.302612,2879.936523 2013.286987,2880.036865 
	C2016.554565,2880.056152 2019.818726,2880.678711 2023.677979,2881.661621 
	C2023.616943,2891.662109 2022.962402,2901.024170 2021.180908,2911.192871 
	C2004.624268,2911.997559 1989.193115,2912.102539 1973.765381,2911.918457 
	C1969.880371,2911.872070 1966.671753,2912.505615 1964.411743,2915.867432 
	C1964.205933,2911.202393 1964.000000,2906.537598 1963.839600,2900.495361 
	C1963.582153,2898.212646 1963.279297,2897.307373 1962.976562,2896.401855 
	C1962.727173,2891.539795 1962.477905,2886.677979 1962.280396,2880.902588 
z"/>
<path fill="#34448C" opacity="1.000000" stroke="none" 
	d="
M1666.424316,2697.456055 
	C1662.713745,2697.179199 1659.589844,2696.107422 1656.456543,2696.079346 
	C1638.284180,2695.916748 1620.108521,2696.115234 1601.936890,2695.913574 
	C1597.730469,2695.866943 1593.535889,2694.738770 1588.475586,2693.956787 
	C1595.854858,2685.895996 1604.094360,2677.986816 1613.779053,2670.285645 
	C1618.758423,2670.995361 1622.289795,2671.905518 1625.827515,2671.930908 
	C1644.607788,2672.065430 1663.389771,2671.978027 1682.171143,2671.967529 
	C1680.796631,2682.576172 1673.206055,2689.440674 1666.424316,2697.456055 
z"/>
<path fill="#2E4D91" opacity="1.000000" stroke="none" 
	d="
M1622.150391,2743.525635 
	C1580.996216,2743.983887 1540.367065,2744.003174 1498.786621,2744.041016 
	C1496.583984,2739.870117 1495.332520,2735.680664 1494.138794,2730.732910 
	C1540.281006,2730.000977 1586.365601,2730.028076 1633.419189,2730.110596 
	C1630.484009,2734.472900 1626.579712,2738.779785 1622.150391,2743.525635 
z"/>
<path fill="#2E4D91" opacity="1.000000" stroke="none" 
	d="
M1480.445312,2896.855469 
	C1495.573853,2896.742188 1510.460449,2897.391602 1526.201782,2898.048828 
	C1523.990234,2910.204346 1520.924072,2922.352051 1516.701416,2935.269531 
	C1501.949707,2936.056396 1488.354492,2936.073242 1474.759155,2936.089844 
	C1473.381104,2922.814209 1476.533203,2910.179443 1480.445312,2896.855469 
z"/>
<path fill="#196BA3" opacity="1.000000" stroke="none" 
	d="
M1913.589600,2930.104980 
	C1911.646484,2939.104248 1910.530640,2948.391602 1907.522949,2957.019775 
	C1904.631104,2965.315918 1898.248291,2970.185303 1888.557007,2970.484375 
	C1878.716064,2970.788086 1871.232544,2967.112793 1867.731323,2958.338867 
	C1864.345093,2949.853516 1862.844604,2940.615479 1861.536621,2930.894043 
	C1879.568115,2930.088379 1896.578979,2930.096680 1913.589600,2930.104980 
z"/>
<path fill="#4C2177" opacity="1.000000" stroke="none" 
	d="
M1799.808838,2791.970215 
	C1794.625732,2791.313477 1789.452271,2790.195801 1784.258057,2790.089600 
	C1770.738281,2789.812988 1757.209351,2789.979736 1742.726196,2789.940674 
	C1744.111816,2780.218994 1746.455322,2770.526611 1749.896606,2760.932129 
	C1754.235229,2761.356934 1757.474365,2761.941650 1760.717651,2761.966309 
	C1777.220093,2762.091797 1793.723755,2762.072021 1810.124878,2762.847168 
	C1806.618164,2773.051025 1803.213501,2782.510498 1799.808838,2791.970215 
z"/>
<path fill="#3A3984" opacity="1.000000" stroke="none" 
	d="
M1859.834229,2887.158203 
	C1862.219116,2884.847656 1864.575195,2882.239990 1866.969360,2882.204346 
	C1887.386475,2881.901123 1907.810669,2882.036377 1928.231934,2882.167969 
	C1929.318359,2882.175049 1930.397461,2883.330811 1931.705200,2884.681641 
	C1929.526001,2891.799561 1925.552490,2896.718750 1919.553223,2900.274414 
	C1917.670166,2901.390625 1916.927124,2904.430664 1914.592285,2907.309570 
	C1895.713501,2908.024414 1877.904541,2908.019775 1860.095581,2908.015381 
	C1860.004639,2901.361328 1859.913818,2894.707275 1859.834229,2887.158203 
z"/>
<path fill="#383D87" opacity="1.000000" stroke="none" 
	d="
M1810.226929,2762.103027 
	C1793.723755,2762.072021 1777.220093,2762.091797 1760.717651,2761.966309 
	C1757.474365,2761.941650 1754.235229,2761.356934 1750.411499,2760.396484 
	C1752.162354,2752.165039 1754.495850,2744.567627 1757.340088,2736.476074 
	C1779.156128,2735.981689 1800.461670,2735.981689 1822.518066,2736.625977 
	C1818.921631,2745.548096 1814.574219,2753.825684 1810.226929,2762.103027 
z"/>
<path fill="#3A3984" opacity="1.000000" stroke="none" 
	d="
M1009.518860,2904.048096 
	C992.966248,2904.042969 976.413696,2904.038086 958.600220,2904.040527 
	C957.339355,2904.047852 956.693481,2904.068604 956.693481,2904.068604 
	C956.589111,2894.676758 956.484741,2885.285156 957.418884,2874.959961 
	C975.401428,2874.031494 992.345520,2874.036377 1009.461426,2874.957275 
	C1009.595154,2885.264893 1009.557007,2894.656494 1009.518860,2904.048096 
z"/>
<path fill="#3A3984" opacity="1.000000" stroke="none" 
	d="
M2151.810059,2687.270996 
	C2134.951660,2688.042236 2118.354980,2688.014404 2100.865723,2687.978271 
	C2104.364258,2678.743164 2108.050537,2669.090332 2113.316895,2660.394043 
	C2120.553467,2648.444092 2126.151611,2648.638184 2137.757568,2650.443115 
	C2146.819580,2651.852051 2153.593262,2661.447021 2153.690918,2671.789062 
	C2153.737061,2676.677734 2152.646729,2681.577393 2151.810059,2687.270996 
z"/>
<path fill="#196BA3" opacity="1.000000" stroke="none" 
	d="
M1474.597168,2936.916504 
	C1488.354492,2936.073242 1501.949707,2936.056396 1516.428223,2936.053955 
	C1516.975098,2944.276367 1516.637573,2952.484375 1516.303101,2960.692627 
	C1515.955811,2969.216553 1511.337769,2975.563232 1503.805908,2977.862793 
	C1495.979980,2980.252197 1487.242920,2977.750488 1482.263550,2971.441650 
	C1477.343628,2965.208496 1475.534546,2957.927734 1475.691162,2948.816406 
	C1475.560791,2946.940430 1475.233521,2946.469971 1474.711670,2946.135010 
	C1474.619507,2943.337646 1474.527344,2940.540527 1474.597168,2936.916504 
z"/>
<path fill="#2E4D91" opacity="1.000000" stroke="none" 
	d="
M2080.144775,2914.559570 
	C2080.643555,2907.640869 2085.226074,2907.996094 2089.623047,2907.996094 
	C2105.192383,2907.996582 2120.761963,2907.979980 2137.289795,2907.942871 
	C2140.041016,2916.113281 2141.833740,2924.310547 2142.555176,2933.281006 
	C2128.705322,2934.039795 2115.926270,2934.079346 2103.148438,2933.982178 
	C2098.553467,2933.947266 2094.455811,2934.328613 2093.884033,2940.166992 
	C2089.338623,2931.871094 2084.793213,2923.574951 2080.144775,2914.559570 
z"/>
<path fill="#4C2177" opacity="1.000000" stroke="none" 
	d="
M1009.289551,2874.041260 
	C992.345520,2874.036377 975.401428,2874.031494 957.581665,2874.045898 
	C956.437744,2865.989502 956.169617,2857.913818 956.000244,2848.914062 
	C973.128967,2844.299805 990.392090,2846.641846 1008.607300,2846.922852 
	C1009.546387,2856.576904 1009.417969,2865.309082 1009.289551,2874.041260 
z"/>
<path fill="#34448C" opacity="1.000000" stroke="none" 
	d="
M1365.340332,2726.258789 
	C1368.971191,2726.609863 1372.027588,2727.860840 1375.107788,2727.922852 
	C1386.953247,2728.161621 1398.811157,2727.817139 1410.654419,2728.105713 
	C1416.501587,2728.248047 1422.326660,2729.296143 1428.993042,2729.941406 
	C1422.905640,2737.090088 1415.986816,2744.231201 1407.648926,2751.567139 
	C1402.360474,2751.181152 1398.498535,2750.165771 1394.620239,2750.099609 
	C1382.089722,2749.885010 1369.549805,2750.185791 1357.021240,2749.919922 
	C1353.181396,2749.838623 1349.366699,2748.573486 1345.540405,2747.850586 
	C1351.952515,2740.771240 1358.364502,2733.691895 1365.340332,2726.258789 
z"/>
<path fill="#432D7F" opacity="1.000000" stroke="none" 
	d="
M1503.464966,2763.012695 
	C1533.578247,2762.163574 1563.819336,2762.048096 1594.060547,2762.061279 
	C1596.298462,2762.062256 1598.535889,2762.988281 1601.570557,2763.840332 
	C1599.282349,2768.536621 1596.197266,2772.876221 1591.648193,2777.606934 
	C1566.794678,2777.995605 1543.404663,2777.912354 1520.015991,2778.070557 
	C1516.170898,2778.096436 1512.333008,2779.185059 1508.491821,2779.782715 
	C1506.858887,2774.447998 1505.225952,2769.113281 1503.464966,2763.012695 
z"/>
<path fill="#432D7F" opacity="1.000000" stroke="none" 
	d="
M1344.970703,2748.152344 
	C1349.366699,2748.573486 1353.181396,2749.838623 1357.021240,2749.919922 
	C1369.549805,2750.185791 1382.089722,2749.885010 1394.620239,2750.099609 
	C1398.498535,2750.165771 1402.360474,2751.181152 1407.049561,2751.860840 
	C1400.690063,2758.926270 1393.510986,2765.893066 1385.115234,2773.281738 
	C1379.998901,2773.141602 1376.106079,2772.156738 1372.198486,2772.094482 
	C1359.239380,2771.887695 1346.274780,2772.006104 1333.312378,2772.015625 
	C1329.938599,2772.018066 1326.414551,2772.335449 1325.804443,2767.631348 
	C1332.003296,2761.239014 1338.202271,2754.846436 1344.970703,2748.152344 
z"/>
<path fill="#383D87" opacity="1.000000" stroke="none" 
	d="
M2029.379395,2757.175049 
	C2005.688477,2757.974854 1982.110229,2757.980469 1957.663330,2757.981445 
	C1956.637817,2755.162109 1956.480957,2752.347412 1956.665527,2748.496582 
	C1957.238159,2746.798096 1956.992310,2746.345947 1956.269287,2746.103760 
	C1956.132812,2743.933838 1955.996216,2741.764160 1955.991821,2738.785645 
	C1975.415771,2737.984619 1994.708130,2738.064453 2013.999023,2737.935059 
	C2017.577881,2737.911133 2021.151001,2737.043457 2025.526611,2736.236572 
	C2027.381714,2742.732178 2028.437012,2749.556396 2029.379395,2757.175049 
z"/>
<path fill="#285596" opacity="1.000000" stroke="none" 
	d="
M1731.869751,2916.959961 
	C1734.960693,2915.410156 1738.018311,2914.138184 1741.092651,2914.096680 
	C1755.887207,2913.895752 1770.686157,2914.026367 1786.357788,2914.056396 
	C1787.361694,2922.135742 1787.491455,2930.197998 1786.534180,2939.149902 
	C1769.182739,2940.052734 1752.918213,2940.065918 1736.653809,2940.079102 
	C1735.050659,2932.654297 1733.447388,2925.229248 1731.869751,2916.959961 
z"/>
<path fill="#196BA3" opacity="1.000000" stroke="none" 
	d="
M2017.886719,2934.035156 
	C2014.995972,2941.694092 2012.925537,2949.806152 2009.008423,2956.898193 
	C2004.026001,2965.918701 1994.418335,2969.324219 1985.262695,2967.064209 
	C1974.578613,2964.427490 1967.648560,2957.105957 1966.333984,2946.687012 
	C1965.881104,2943.096680 1966.041748,2939.428955 1966.956787,2934.907227 
	C1984.623291,2934.023682 2001.255005,2934.029297 2017.886719,2934.035156 
z"/>
<path fill="#2E4D91" opacity="1.000000" stroke="none" 
	d="
M1562.417480,2696.892578 
	C1538.946045,2697.778320 1515.466187,2697.894043 1491.060303,2698.013428 
	C1490.681885,2691.884521 1491.229492,2685.751709 1492.897705,2678.818848 
	C1514.713989,2678.001709 1535.409668,2677.984619 1556.105347,2677.967529 
	C1558.206665,2684.019287 1560.307983,2690.071045 1562.417480,2696.892578 
z"/>
<path fill="#34448C" opacity="1.000000" stroke="none" 
	d="
M2015.548828,2691.366699 
	C2010.821655,2692.695068 2005.990845,2693.821777 2001.142578,2693.901611 
	C1986.674683,2694.139893 1972.200073,2693.967285 1956.775391,2693.913574 
	C1957.281372,2671.198242 1974.750977,2658.388184 1994.140747,2665.778076 
	C2001.286011,2668.501221 2005.956055,2674.047119 2009.964600,2680.150635 
	C2012.125732,2683.441406 2013.634155,2687.160400 2015.548828,2691.366699 
z"/>
<path fill="#34448C" opacity="1.000000" stroke="none" 
	d="
M2122.351074,2755.431641 
	C2103.179443,2755.990234 2084.384277,2756.082275 2065.592041,2755.896729 
	C2062.553467,2755.866699 2059.526855,2754.601318 2056.296875,2753.154541 
	C2061.605225,2745.721191 2067.111084,2739.040039 2073.178223,2731.984863 
	C2075.750488,2736.264648 2079.833984,2736.026855 2083.905518,2736.015381 
	C2099.896729,2735.970215 2115.887939,2735.987305 2132.791016,2735.972656 
	C2130.044678,2742.266846 2126.386475,2748.570068 2122.351074,2755.431641 
z"/>
<path fill="#511771" opacity="1.000000" stroke="none" 
	d="
M1325.232910,2767.985596 
	C1326.414551,2772.335449 1329.938599,2772.018066 1333.312378,2772.015625 
	C1346.274780,2772.006104 1359.239380,2771.887695 1372.198486,2772.094482 
	C1376.106079,2772.156738 1379.998901,2773.141602 1384.680664,2773.815918 
	C1377.997314,2781.035400 1370.531860,2788.143311 1362.440430,2795.474121 
	C1357.879761,2794.467773 1353.981934,2792.344238 1350.002808,2792.178955 
	C1338.485474,2791.700684 1326.934448,2792.098389 1315.399048,2791.952881 
	C1312.169067,2791.912354 1308.947998,2791.182861 1304.975098,2790.447510 
	C1311.038696,2782.863770 1317.850098,2775.601807 1325.232910,2767.985596 
z"/>
<path fill="#34448C" opacity="1.000000" stroke="none" 
	d="
M1861.866089,2736.049805 
	C1881.074829,2736.021484 1900.283691,2735.993164 1920.367920,2735.941650 
	C1921.976074,2742.712402 1922.708740,2749.506836 1922.461670,2757.126221 
	C1901.929810,2757.952637 1882.377808,2757.954102 1862.629883,2757.059814 
	C1862.244507,2749.459473 1862.055298,2742.754639 1861.866089,2736.049805 
z"/>
<path fill="#3A3984" opacity="1.000000" stroke="none" 
	d="
M1556.039307,2677.251221 
	C1535.409668,2677.984619 1514.713989,2678.001709 1493.095947,2678.027832 
	C1494.732422,2665.016357 1501.823608,2655.887695 1514.880615,2652.175537 
	C1532.014282,2647.304199 1543.690918,2655.248535 1551.164307,2666.816650 
	C1553.112793,2669.832764 1554.388428,2673.283691 1556.039307,2677.251221 
z"/>
<path fill="#432D7F" opacity="1.000000" stroke="none" 
	d="
M1682.250000,2671.159180 
	C1663.389771,2671.978027 1644.607788,2672.065430 1625.827515,2671.930908 
	C1622.289795,2671.905518 1618.758423,2670.995361 1614.431396,2670.125977 
	C1622.970581,2658.951904 1634.828125,2651.625732 1648.082520,2647.162842 
	C1666.275269,2641.037598 1682.591919,2653.376953 1682.250000,2671.159180 
z"/>
<path fill="#511771" opacity="1.000000" stroke="none" 
	d="
M1508.585083,2780.509766 
	C1512.333008,2779.185059 1516.170898,2778.096436 1520.015991,2778.070557 
	C1543.404663,2777.912354 1566.794678,2777.995605 1591.128174,2778.007324 
	C1591.277100,2782.799316 1590.482178,2787.582275 1589.522705,2793.187012 
	C1564.387329,2794.005371 1539.416138,2794.001953 1513.570557,2793.996094 
	C1511.356812,2789.741699 1510.017578,2785.489258 1508.585083,2780.509766 
z"/>
<path fill="#196BA3" opacity="1.000000" stroke="none" 
	d="
M2093.938965,2940.866455 
	C2094.455811,2934.328613 2098.553467,2933.947266 2103.148438,2933.982178 
	C2115.926270,2934.079346 2128.705322,2934.039795 2142.361572,2934.074219 
	C2143.387695,2937.396484 2143.982666,2940.751465 2143.596924,2943.989746 
	C2142.623291,2952.171143 2140.056152,2959.807129 2131.501709,2962.989502 
	C2123.181885,2966.084473 2114.699951,2965.021973 2108.207031,2959.080811 
	C2102.720703,2954.060547 2098.676514,2947.464600 2093.938965,2940.866455 
z"/>
<path fill="#432D7F" opacity="1.000000" stroke="none" 
	d="
M1862.825806,2757.955322 
	C1882.377808,2757.954102 1901.929810,2757.952637 1922.352295,2757.923096 
	C1923.356201,2763.976562 1923.489380,2770.058105 1922.587280,2777.052246 
	C1902.411865,2777.946533 1883.271606,2777.928711 1864.102051,2777.183594 
	C1863.638062,2773.731689 1863.203491,2771.007324 1862.619263,2767.429199 
	C1862.588379,2763.701904 1862.707153,2760.828613 1862.825806,2757.955322 
z"/>
<path fill="#2E4D91" opacity="1.000000" stroke="none" 
	d="
M2018.207031,2933.361328 
	C2001.255005,2934.029297 1984.623291,2934.023682 1967.065430,2934.027344 
	C1966.139282,2934.036865 1965.833618,2933.172852 1965.878906,2932.077637 
	C1965.530518,2929.421143 1965.136841,2927.859863 1964.743164,2926.298340 
	C1964.594360,2923.404785 1964.445435,2920.511475 1964.354126,2916.742676 
	C1966.671753,2912.505615 1969.880371,2911.872070 1973.765381,2911.918457 
	C1989.193115,2912.102539 2004.624268,2911.997559 2020.983887,2912.002930 
	C2021.821167,2914.192627 2021.728760,2916.379395 2021.156494,2919.668457 
	C2020.323730,2921.276611 2020.182739,2921.836182 2020.253906,2922.449463 
	C2019.678467,2925.862305 2019.102905,2929.274902 2018.207031,2933.361328 
z"/>
<path fill="#2E4D91" opacity="1.000000" stroke="none" 
	d="
M1859.987549,2908.928223 
	C1877.904541,2908.019775 1895.713501,2908.024414 1914.399658,2908.043457 
	C1914.881958,2914.847412 1914.487061,2921.636719 1913.840820,2929.265625 
	C1896.578979,2930.096680 1879.568115,2930.088379 1861.684326,2930.109863 
	C1860.500610,2923.373535 1860.190063,2916.607422 1859.987549,2908.928223 
z"/>
<path fill="#196BA3" opacity="1.000000" stroke="none" 
	d="
M1736.753296,2940.764404 
	C1752.918213,2940.065918 1769.182739,2940.052734 1786.321045,2940.056641 
	C1786.794556,2942.338379 1786.512939,2944.631348 1785.975220,2946.862549 
	C1781.748291,2964.397949 1760.091919,2971.531738 1747.122070,2959.004883 
	C1742.427002,2954.469971 1740.203857,2947.375977 1736.753296,2940.764404 
z"/>
<path fill="#511771" opacity="1.000000" stroke="none" 
	d="
M1864.131470,2777.910645 
	C1883.271606,2777.928711 1902.411865,2777.946533 1922.427612,2777.943359 
	C1923.496582,2782.699707 1923.689941,2787.476807 1923.649902,2793.123047 
	C1904.239746,2793.983887 1885.063232,2793.975586 1864.947510,2793.058105 
	C1864.049561,2787.402832 1864.090454,2782.656738 1864.131470,2777.910645 
z"/>
<path fill="#383D87" opacity="1.000000" stroke="none" 
	d="
M1964.566650,2926.917969 
	C1965.136841,2927.859863 1965.530518,2929.421143 1965.860596,2931.619873 
	C1965.328125,2930.683838 1964.859131,2929.110596 1964.566650,2926.917969 
z"/>
<path fill="#4C2177" opacity="1.000000" stroke="none" 
	d="
M956.529175,2904.657227 
	C956.693481,2904.068604 957.339355,2904.047852 957.662109,2904.058105 
	C957.777344,2905.037842 957.569824,2906.007080 957.003174,2907.308105 
	C956.550964,2906.841797 956.457947,2906.043701 956.529175,2904.657227 
z"/>
<path fill="#4C2177" opacity="1.000000" stroke="none" 
	d="
M1962.767578,2896.891602 
	C1963.279297,2897.307373 1963.582153,2898.212646 1963.836670,2899.618652 
	C1963.378418,2899.206299 1962.968506,2898.293945 1962.767578,2896.891602 
z"/>
<path fill="#383D87" opacity="1.000000" stroke="none" 
	d="
M1685.673096,2874.757324 
	C1685.846069,2875.358643 1685.608276,2876.215576 1685.056030,2877.385254 
	C1684.915039,2876.803223 1685.088623,2875.907715 1685.673096,2874.757324 
z"/>
<path fill="#3A3984" opacity="1.000000" stroke="none" 
	d="
M1122.625977,2912.129395 
	C1122.472290,2911.760498 1122.793091,2911.130615 1123.591309,2910.244141 
	C1123.745972,2910.614502 1123.423218,2911.241455 1122.625977,2912.129395 
z"/>
<path fill="#383D87" opacity="1.000000" stroke="none" 
	d="
M2020.615234,2922.167969 
	C2020.182739,2921.836182 2020.323730,2921.276611 2020.996826,2920.476318 
	C2021.560059,2920.821045 2021.446655,2921.389160 2020.615234,2922.167969 
z"/>
<path fill="#383D87" opacity="1.000000" stroke="none" 
	d="
M1790.676636,2887.173340 
	C1790.577881,2886.727539 1790.979980,2886.421143 1791.856445,2886.149658 
	C1791.988770,2886.577393 1791.604370,2886.953369 1790.676636,2887.173340 
z"/>
<path fill="#383D87" opacity="1.000000" stroke="none" 
	d="
M1229.679199,2876.488525 
	C1229.802124,2876.772949 1229.522583,2877.125732 1228.901123,2877.607666 
	C1228.643555,2877.260986 1228.882690,2876.867432 1229.679199,2876.488525 
z"/>
<path fill="#432D7F" opacity="1.000000" stroke="none" 
	d="
M1956.244385,2746.554443 
	C1956.992310,2746.345947 1957.238159,2746.798096 1956.773560,2747.654541 
	C1956.540161,2747.848877 1956.219604,2747.005127 1956.244385,2746.554443 
z"/>
<path fill="#432D7F" opacity="1.000000" stroke="none" 
	d="
M752.829956,2843.176270 
	C752.752136,2843.456299 752.214355,2842.618652 752.125122,2842.379395 
	C752.439697,2842.262451 752.730286,2842.514404 752.829956,2843.176270 
z"/>
<path fill="#196BA3" opacity="1.000000" stroke="none" 
	d="
M1193.703857,2938.126953 
	C1193.883545,2938.333740 1193.728027,2938.716553 1193.342773,2939.322021 
	C1192.939941,2939.089111 1193.025146,2938.675293 1193.703857,2938.126953 
z"/>
<path fill="#57106D" opacity="1.000000" stroke="none" 
	d="
M1169.210815,2767.400879 
	C1168.744263,2767.511230 1168.442383,2767.124268 1168.201538,2766.266602 
	C1168.658569,2766.111328 1169.029541,2766.480713 1169.210815,2767.400879 
z"/>
<path fill="#2E4D91" opacity="1.000000" stroke="none" 
	d="
M1563.656006,2699.458984 
	C1563.072876,2699.689941 1562.637695,2699.251709 1562.302612,2698.169678 
	C1562.976318,2697.808838 1563.443481,2698.230225 1563.656006,2699.458984 
z"/>
<path fill="#34448C" opacity="1.000000" stroke="none" 
	d="
M1955.529053,2694.055664 
	C1955.894043,2694.366699 1955.747192,2694.841309 1955.184814,2695.530029 
	C1954.611084,2695.218994 1954.693726,2694.710449 1955.529053,2694.055664 
z"/>
<path fill="#2E4D91" opacity="1.000000" stroke="none" 
	d="
M1474.621338,2946.588135 
	C1475.233521,2946.469971 1475.560791,2946.940430 1475.687622,2947.987793 
	C1475.080322,2948.147461 1474.696777,2947.684570 1474.621338,2946.588135 
z"/>
<path fill="#000000" opacity="1.000000" stroke="none" 
	d="
M2023.257935,719.617065 
	C2027.602661,728.862732 2031.181763,737.784790 2035.251465,746.477112 
	C2052.897461,784.167114 2067.031738,823.210388 2079.823730,862.739319 
	C2096.621094,914.644836 2110.047607,967.453491 2120.018311,1021.088867 
	C2125.716797,1051.741943 2131.021973,1082.488159 2135.544189,1113.333130 
	C2138.621338,1134.322388 2140.080811,1155.550903 2142.176514,1176.681030 
	C2143.551270,1190.540649 2144.769775,1204.415894 2146.285889,1219.152222 
	C2147.498779,1239.221191 2148.483887,1258.421875 2149.469482,1277.622681 
	C2149.588867,1279.946655 2149.812988,1282.270508 2149.813965,1284.594482 
	C2149.833496,1325.562866 2150.478516,1366.545288 2149.586914,1407.494385 
	C2149.024902,1433.323242 2146.256836,1459.109375 2144.285400,1484.900024 
	C2143.021240,1501.434448 2141.743896,1517.980347 2139.863037,1534.451538 
	C2137.494141,1555.198853 2135.177979,1575.991577 2131.628418,1596.555664 
	C2125.819580,1630.209595 2119.388916,1663.767334 2112.570068,1697.233032 
	C2104.207275,1738.274780 2092.772949,1778.539307 2080.328613,1819.265381 
	C2074.392578,1836.554932 2068.932617,1853.289795 2062.367188,1869.579102 
	C2050.807617,1898.258423 2039.044067,1926.874268 2026.510254,1955.137451 
	C2007.844360,1997.227905 1984.745728,2036.903809 1958.643555,2074.810547 
	C1940.882446,2100.603760 1921.209106,2124.826660 1899.792358,2147.745361 
	C1875.817505,2173.401123 1849.378784,2195.958252 1820.067627,2215.175049 
	C1802.781616,2226.508057 1784.870850,2236.893066 1765.427856,2244.021729 
	C1741.702759,2252.719971 1717.474243,2259.943359 1692.134644,2262.152100 
	C1679.906860,2263.218018 1667.596313,2263.797852 1655.322754,2263.807861 
	C1516.030151,2263.919678 1376.737427,2263.877930 1237.444824,2263.877686 
	C1233.486450,2263.877686 1229.528198,2263.877686 1224.340820,2263.877686 
	C1224.144043,2259.408936 1223.829102,2255.577637 1223.828003,2251.746338 
	C1223.796631,2146.443848 1223.805420,2041.141235 1223.786255,1935.838623 
	C1223.781738,1911.180054 1223.700562,1886.521606 1223.476685,1860.940430 
	C1223.470703,1857.036133 1223.793091,1854.054443 1223.793457,1851.072876 
	C1223.810791,1682.999023 1223.801636,1514.925171 1223.789307,1346.851318 
	C1223.789185,1345.188110 1223.712036,1343.525024 1223.496582,1340.938232 
	C1223.488525,1337.031860 1223.800171,1334.049072 1223.800415,1331.066162 
	C1223.818115,1145.659302 1223.810791,960.252441 1223.799805,774.845581 
	C1223.799683,773.182251 1223.720703,771.518860 1223.501831,768.931946 
	C1223.489624,763.689087 1223.796753,759.369934 1223.797852,755.050598 
	C1223.825928,647.088196 1223.821899,539.125854 1223.823608,431.163483 
	C1223.823608,427.248749 1223.823486,423.334015 1223.823486,418.714355 
	C1228.139160,418.489197 1231.371582,418.173523 1234.604126,418.173004 
	C1381.886108,418.149536 1529.168945,417.916260 1676.449585,418.369720 
	C1703.506592,418.453033 1729.725830,425.408905 1755.117310,434.738556 
	C1795.585938,449.607941 1831.291992,472.403992 1863.831299,500.477722 
	C1901.112183,532.642395 1932.403076,569.932190 1960.413940,610.318481 
	C1983.799316,644.035522 2002.886719,680.105225 2021.754517,716.364258 
	C2022.208374,717.236389 2022.402588,718.243591 2023.257935,719.617065 
z"/>
<path fill="#000000" opacity="1.000000" stroke="none" 
	d="
M1009.461487,2874.957275 
	C1009.417969,2865.309082 1009.546387,2856.576904 1009.502625,2846.928223 
	C1009.451721,2823.931885 1009.572937,2801.852051 1009.501953,2778.841309 
	C1009.320923,2766.356201 1009.332031,2754.802246 1008.829956,2742.605957 
	C1008.316833,2732.398438 1008.316833,2722.833252 1008.316833,2712.284424 
	C1025.887085,2705.777344 1043.733032,2703.814453 1062.232300,2708.963379 
	C1079.354248,2713.728760 1091.135742,2724.297607 1098.127197,2741.338379 
	C1101.530151,2753.826416 1102.889404,2765.859375 1102.099976,2779.030762 
	C1100.304321,2800.801025 1096.430420,2821.174805 1088.087158,2841.278564 
	C1080.669434,2853.509033 1073.331299,2864.998535 1065.765869,2877.138428 
	C1055.131348,2887.861328 1043.805664,2896.650635 1030.125977,2903.317871 
	C1025.309326,2905.046631 1020.983032,2906.367188 1016.592468,2907.419434 
	C1014.172974,2907.999268 1011.369446,2909.024658 1009.803589,2904.754395 
	C1009.557007,2894.656494 1009.595154,2885.264893 1009.461487,2874.957275 
z"/>
<path fill="#000000" opacity="1.000000" stroke="none" 
	d="
M1862.629883,2757.059814 
	C1862.707153,2760.828613 1862.588379,2763.701904 1862.416748,2768.306641 
	C1862.497437,2778.020508 1862.631104,2786.002930 1862.764648,2793.985596 
	C1862.906372,2804.774902 1863.047974,2815.564209 1863.257812,2827.167969 
	C1862.578857,2831.492188 1861.831665,2835.001709 1861.231689,2837.820557 
	C1847.815552,2837.820557 1834.683105,2838.024170 1821.560669,2837.748047 
	C1813.000854,2837.567871 1804.433594,2836.889648 1795.924683,2835.940430 
	C1794.422974,2835.772949 1793.192749,2833.172607 1791.756348,2830.848389 
	C1794.380127,2817.843262 1797.084717,2805.685791 1799.799072,2792.749023 
	C1803.213501,2782.510498 1806.618164,2773.051025 1810.124878,2762.847168 
	C1814.574219,2753.825684 1818.921631,2745.548096 1823.429688,2736.611328 
	C1828.339844,2730.474121 1832.927002,2724.841553 1837.919678,2719.595215 
	C1839.898315,2717.515625 1842.597290,2715.838867 1845.283325,2714.772217 
	C1851.643066,2712.246826 1855.583740,2714.037354 1857.615601,2720.474854 
	C1859.096069,2725.165283 1859.819824,2730.094482 1861.373535,2735.483398 
	C1862.055298,2742.754639 1862.244507,2749.459473 1862.629883,2757.059814 
z"/>
<path fill="#000000" opacity="1.000000" stroke="none" 
	d="
M1268.105225,2904.126953 
	C1267.853149,2904.194336 1267.458618,2904.112549 1267.364746,2903.861084 
	C1267.665283,2903.691650 1267.962891,2903.977539 1268.105225,2904.126953 
z"/>
<path fill="#57106D" opacity="1.000000" stroke="none" 
	d="
M1863.077637,2793.973633 
	C1862.631104,2786.002930 1862.497437,2778.020508 1862.566406,2769.160400 
	C1863.203491,2771.007324 1863.638062,2773.731689 1864.102051,2777.183350 
	C1864.090454,2782.656738 1864.049561,2787.402832 1864.011597,2793.029053 
	C1864.014648,2793.909180 1863.390503,2793.961670 1863.077637,2793.973633 
z"/>
</svg>